# OBJ generated by ONSHAPE BY PTC INC, 1.191 Units = meters
mtllib roundcorner2ft.mtl
g Part 1
v 0.1778 2.7432 -0.6985 
v 0.1778 0 -0.6985 
v 0 0 -0.6985 
v 0 2.7432 -0.6985 
v 0.6985 0 0 
v 0.6985 2.7432 0 
v 0.672989 2.7432 -0.000466005 
v 0.672989 0 -0.000466005 
v 0.647513 2.7432 -0.0018634 
v 0.647513 0 -0.0018634 
v 0.622104 2.7432 -0.00419032 
v 0.622104 0 -0.00419032 
v 0.596798 2.7432 -0.00744366 
v 0.596798 0 -0.00744366 
v 0.571627 2.7432 -0.0116191 
v 0.571627 0 -0.0116191 
v 0.546625 2.7432 -0.016711 
v 0.546625 0 -0.016711 
v 0.521826 2.7432 -0.0227126 
v 0.521826 0 -0.0227126 
v 0.497263 2.7432 -0.029616 
v 0.497263 0 -0.029616 
v 0.472968 2.7432 -0.0374118 
v 0.472968 0 -0.0374118 
v 0.448974 2.7432 -0.0460897 
v 0.448974 0 -0.0460897 
v 0.425313 2.7432 -0.0556382 
v 0.425313 0 -0.0556382 
v 0.402017 2.7432 -0.0660444 
v 0.402017 0 -0.0660444 
v 0.379116 2.7432 -0.0772945 
v 0.379116 0 -0.0772945 
v 0.356642 2.7432 -0.0893735 
v 0.356642 0 -0.0893735 
v 0.334623 2.7432 -0.102265 
v 0.334623 0 -0.102265 
v 0.31309 2.7432 -0.115953 
v 0.31309 0 -0.115953 
v 0.292072 2.7432 -0.130417 
v 0.292072 0 -0.130417 
v 0.271595 2.7432 -0.14564 
v 0.271595 0 -0.14564 
v 0.251688 2.7432 -0.1616 
v 0.251688 0 -0.1616 
v 0.232378 2.7432 -0.178277 
v 0.232378 0 -0.178277 
v 0.213689 2.7432 -0.195647 
v 0.213689 0 -0.195647 
v 0.195647 2.7432 -0.213689 
v 0.195647 0 -0.213689 
v 0.178277 2.7432 -0.232378 
v 0.178277 0 -0.232378 
v 0.1616 2.7432 -0.251688 
v 0.1616 0 -0.251688 
v 0.14564 2.7432 -0.271595 
v 0.14564 0 -0.271595 
v 0.130417 2.7432 -0.292072 
v 0.130417 0 -0.292072 
v 0.115953 2.7432 -0.31309 
v 0.115953 0 -0.31309 
v 0.102265 2.7432 -0.334623 
v 0.102265 0 -0.334623 
v 0.0893735 2.7432 -0.356642 
v 0.0893735 0 -0.356642 
v 0.0772945 2.7432 -0.379116 
v 0.0772945 0 -0.379116 
v 0.0660444 2.7432 -0.402017 
v 0.0660444 0 -0.402017 
v 0.0556382 2.7432 -0.425313 
v 0.0556382 0 -0.425313 
v 0.0460897 2.7432 -0.448974 
v 0.0460897 0 -0.448974 
v 0.0374118 2.7432 -0.472968 
v 0.0374118 0 -0.472968 
v 0.029616 2.7432 -0.497263 
v 0.029616 0 -0.497263 
v 0.0227126 2.7432 -0.521826 
v 0.0227126 0 -0.521826 
v 0.016711 2.7432 -0.546625 
v 0.016711 0 -0.546625 
v 0.0116191 2.7432 -0.571627 
v 0.0116191 0 -0.571627 
v 0.00744366 2.7432 -0.596798 
v 0.00744366 0 -0.596798 
v 0.00419032 2.7432 -0.622104 
v 0.00419032 0 -0.622104 
v 0.0018634 2.7432 -0.647513 
v 0.0018634 0 -0.647513 
v 0.000466005 2.7432 -0.672989 
v 0.000466005 0 -0.672989 
v 0.6985 0 -0.1778 
v 0.6985 2.7432 -0.1778 
v 0.178269 0 -0.676401 
v 0.179676 0 -0.654342 
v 0.178269 2.7432 -0.676401 
v 0.182017 0 -0.632362 
v 0.179676 2.7432 -0.654342 
v 0.18529 0 -0.610501 
v 0.182017 2.7432 -0.632362 
v 0.189487 0 -0.588799 
v 0.18529 2.7432 -0.610501 
v 0.194601 0 -0.567295 
v 0.189487 2.7432 -0.588799 
v 0.200624 0 -0.546027 
v 0.194601 2.7432 -0.567295 
v 0.207544 0 -0.525034 
v 0.200624 2.7432 -0.546027 
v 0.215348 0 -0.504354 
v 0.207544 2.7432 -0.525034 
v 0.224023 0 -0.484023 
v 0.215348 2.7432 -0.504354 
v 0.233554 0 -0.464079 
v 0.224023 2.7432 -0.484023 
v 0.243922 0 -0.444557 
v 0.233554 2.7432 -0.464079 
v 0.255109 0 -0.425493 
v 0.243922 2.7432 -0.444557 
v 0.267095 0 -0.406921 
v 0.255109 2.7432 -0.425493 
v 0.279859 0 -0.388875 
v 0.267095 2.7432 -0.406921 
v 0.293377 0 -0.371386 
v 0.279859 2.7432 -0.388875 
v 0.307625 0 -0.354487 
v 0.293377 2.7432 -0.371386 
v 0.322577 0 -0.338207 
v 0.307625 2.7432 -0.354487 
v 0.338207 0 -0.322577 
v 0.322577 2.7432 -0.338207 
v 0.354487 0 -0.307625 
v 0.338207 2.7432 -0.322577 
v 0.371386 0 -0.293377 
v 0.354487 2.7432 -0.307625 
v 0.388875 0 -0.279859 
v 0.371386 2.7432 -0.293377 
v 0.406921 0 -0.267095 
v 0.388875 2.7432 -0.279859 
v 0.425493 0 -0.255109 
v 0.406921 2.7432 -0.267095 
v 0.444557 0 -0.243922 
v 0.425493 2.7432 -0.255109 
v 0.464079 0 -0.233554 
v 0.444557 2.7432 -0.243922 
v 0.484023 0 -0.224023 
v 0.464079 2.7432 -0.233554 
v 0.504354 0 -0.215348 
v 0.484023 2.7432 -0.224023 
v 0.525034 0 -0.207544 
v 0.504354 2.7432 -0.215348 
v 0.546027 0 -0.200624 
v 0.525034 2.7432 -0.207544 
v 0.567295 0 -0.194601 
v 0.546027 2.7432 -0.200624 
v 0.588799 0 -0.189487 
v 0.567295 2.7432 -0.194601 
v 0.610501 0 -0.18529 
v 0.588799 2.7432 -0.189487 
v 0.632362 0 -0.182017 
v 0.610501 2.7432 -0.18529 
v 0.654342 0 -0.179676 
v 0.632362 2.7432 -0.182017 
v 0.676401 0 -0.178269 
v 0.654342 2.7432 -0.179676 
v 0.676401 2.7432 -0.178269 
vn 0 0 -1 
vn 1.83697e-16 0 1 
vn -0.036522 0 0.999333 
vn -0.0729953 0 0.997332 
vn -0.109371 0 0.994001 
vn -0.145601 0 0.989343 
vn -0.181637 0 0.983366 
vn -0.21743 0 0.976076 
vn -0.252933 0 0.967484 
vn -0.288099 0 0.957601 
vn -0.32288 0 0.94644 
vn -0.357231 0 0.934016 
vn -0.391105 0 0.920346 
vn -0.424457 0 0.905448 
vn -0.457242 0 0.889342 
vn -0.489418 0 0.872049 
vn -0.52094 0 0.853593 
vn -0.551768 0 0.833998 
vn -0.581859 0 0.81329 
vn -0.611174 0 0.791496 
vn -0.639673 0 0.768647 
vn -0.667319 0 0.744772 
vn -0.694074 0 0.719903 
vn -0.719903 0 0.694074 
vn -0.744772 0 0.667319 
vn -0.768647 0 0.639673 
vn -0.791496 0 0.611174 
vn -0.81329 0 0.581859 
vn -0.833998 0 0.551768 
vn -0.853593 0 0.52094 
vn -0.872049 0 0.489418 
vn -0.889342 0 0.457242 
vn -0.905448 0 0.424457 
vn -0.920346 0 0.391105 
vn -0.934016 0 0.357231 
vn -0.94644 0 0.32288 
vn -0.957601 0 0.288099 
vn -0.967484 0 0.252933 
vn -0.976076 0 0.21743 
vn -0.983366 0 0.181637 
vn -0.989343 0 0.145601 
vn -0.994001 0 0.109371 
vn -0.997332 0 0.0729953 
vn -0.999333 0 0.036522 
vn -1 0 2.44929e-16 
vn 1 0 0 
vn 0.999099 0 -0.0424412 
vn 0.996397 0 -0.0848059 
vn 0.9919 0 -0.127018 
vn 0.985616 0 -0.169001 
vn 0.977555 0 -0.210679 
vn 0.967733 0 -0.251978 
vn 0.956167 0 -0.292823 
vn 0.942877 0 -0.33314 
vn 0.927889 0 -0.372856 
vn 0.911228 0 -0.411901 
vn 0.892926 0 -0.450204 
vn 0.873014 0 -0.487695 
vn 0.851529 0 -0.524307 
vn 0.82851 0 -0.559975 
vn 0.803997 0 -0.594633 
vn 0.778036 0 -0.62822 
vn 0.750672 0 -0.660675 
vn 0.721956 0 -0.691939 
vn 0.691939 0 -0.721956 
vn 0.660675 0 -0.750672 
vn 0.62822 0 -0.778036 
vn 0.594633 0 -0.803997 
vn 0.559975 0 -0.82851 
vn 0.524307 0 -0.851529 
vn 0.487695 0 -0.873014 
vn 0.450204 0 -0.892926 
vn 0.411901 0 -0.911228 
vn 0.372856 0 -0.927889 
vn 0.33314 0 -0.942877 
vn 0.292823 0 -0.956167 
vn 0.251978 0 -0.967733 
vn 0.210679 0 -0.977555 
vn 0.169001 0 -0.985616 
vn 0.127018 0 -0.9919 
vn 0.0848059 0 -0.996397 
vn 0.0424412 0 -0.999099 
vn -1.83697e-16 0 -1 
vn 0 1 0 
vn 0 -1 0 
usemtl 0.615686_0.811765_0.929412_0.000000_0.000000
o mesh0
f 1//1 2//1 3//1 
f 3//1 4//1 1//1 
o mesh1
f 5//2 6//2 7//3 
f 8//3 7//3 9//4 
f 10//4 9//4 11//5 
f 12//5 11//5 13//6 
f 14//6 13//6 15//7 
f 16//7 15//7 17//8 
f 18//8 17//8 19//9 
f 20//9 19//9 21//10 
f 22//10 21//10 23//11 
f 24//11 23//11 25//12 
f 26//12 25//12 27//13 
f 28//13 27//13 29//14 
f 30//14 29//14 31//15 
f 32//15 31//15 33//16 
f 34//16 33//16 35//17 
f 36//17 35//17 37//18 
f 38//18 37//18 39//19 
f 40//19 39//19 41//20 
f 42//20 41//20 43//21 
f 44//21 43//21 45//22 
f 46//22 45//22 47//23 
f 48//23 47//23 49//24 
f 50//24 49//24 51//25 
f 52//25 51//25 53//26 
f 54//26 53//26 55//27 
f 56//27 55//27 57//28 
f 58//28 57//28 59//29 
f 60//29 59//29 61//30 
f 62//30 61//30 63//31 
f 64//31 63//31 65//32 
f 66//32 65//32 67//33 
f 68//33 67//33 69//34 
f 70//34 69//34 71//35 
f 72//35 71//35 73//36 
f 74//36 73//36 75//37 
f 76//37 75//37 77//38 
f 78//38 77//38 79//39 
f 80//39 79//39 81//40 
f 82//40 81//40 83//41 
f 84//41 83//41 85//42 
f 86//42 85//42 87//43 
f 88//43 87//43 89//44 
f 90//44 89//44 4//45 
f 4//45 3//45 90//44 
f 89//44 90//44 88//43 
f 87//43 88//43 86//42 
f 85//42 86//42 84//41 
f 83//41 84//41 82//40 
f 81//40 82//40 80//39 
f 79//39 80//39 78//38 
f 77//38 78//38 76//37 
f 75//37 76//37 74//36 
f 73//36 74//36 72//35 
f 71//35 72//35 70//34 
f 69//34 70//34 68//33 
f 67//33 68//33 66//32 
f 65//32 66//32 64//31 
f 63//31 64//31 62//30 
f 61//30 62//30 60//29 
f 59//29 60//29 58//28 
f 57//28 58//28 56//27 
f 55//27 56//27 54//26 
f 53//26 54//26 52//25 
f 51//25 52//25 50//24 
f 49//24 50//24 48//23 
f 47//23 48//23 46//22 
f 45//22 46//22 44//21 
f 43//21 44//21 42//20 
f 41//20 42//20 40//19 
f 39//19 40//19 38//18 
f 37//18 38//18 36//17 
f 35//17 36//17 34//16 
f 33//16 34//16 32//15 
f 31//15 32//15 30//14 
f 29//14 30//14 28//13 
f 27//13 28//13 26//12 
f 25//12 26//12 24//11 
f 23//11 24//11 22//10 
f 21//10 22//10 20//9 
f 19//9 20//9 18//8 
f 17//8 18//8 16//7 
f 15//7 16//7 14//6 
f 13//6 14//6 12//5 
f 11//5 12//5 10//4 
f 9//4 10//4 8//3 
f 7//3 8//3 5//2 
o mesh2
f 6//46 5//46 91//46 
f 91//46 92//46 6//46 
o mesh3
f 93//47 2//46 1//46 
f 94//48 93//47 95//47 
f 96//49 94//48 97//48 
f 98//50 96//49 99//49 
f 100//51 98//50 101//50 
f 102//52 100//51 103//51 
f 104//53 102//52 105//52 
f 106//54 104//53 107//53 
f 108//55 106//54 109//54 
f 110//56 108//55 111//55 
f 112//57 110//56 113//56 
f 114//58 112//57 115//57 
f 116//59 114//58 117//58 
f 118//60 116//59 119//59 
f 120//61 118//60 121//60 
f 122//62 120//61 123//61 
f 124//63 122//62 125//62 
f 126//64 124//63 127//63 
f 128//65 126//64 129//64 
f 130//66 128//65 131//65 
f 132//67 130//66 133//66 
f 134//68 132//67 135//67 
f 136//69 134//68 137//68 
f 138//70 136//69 139//69 
f 140//71 138//70 141//70 
f 142//72 140//71 143//71 
f 144//73 142//72 145//72 
f 146//74 144//73 147//73 
f 148//75 146//74 149//74 
f 150//76 148//75 151//75 
f 152//77 150//76 153//76 
f 154//78 152//77 155//77 
f 156//79 154//78 157//78 
f 158//80 156//79 159//79 
f 160//81 158//80 161//80 
f 162//82 160//81 163//81 
f 91//83 162//82 164//82 
f 164//82 92//83 91//83 
f 163//81 164//82 162//82 
f 161//80 163//81 160//81 
f 159//79 161//80 158//80 
f 157//78 159//79 156//79 
f 155//77 157//78 154//78 
f 153//76 155//77 152//77 
f 151//75 153//76 150//76 
f 149//74 151//75 148//75 
f 147//73 149//74 146//74 
f 145//72 147//73 144//73 
f 143//71 145//72 142//72 
f 141//70 143//71 140//71 
f 139//69 141//70 138//70 
f 137//68 139//69 136//69 
f 135//67 137//68 134//68 
f 133//66 135//67 132//67 
f 131//65 133//66 130//66 
f 129//64 131//65 128//65 
f 127//63 129//64 126//64 
f 125//62 127//63 124//63 
f 123//61 125//62 122//62 
f 121//60 123//61 120//61 
f 119//59 121//60 118//60 
f 117//58 119//59 116//59 
f 115//57 117//58 114//58 
f 113//56 115//57 112//57 
f 111//55 113//56 110//56 
f 109//54 111//55 108//55 
f 107//53 109//54 106//54 
f 105//52 107//53 104//53 
f 103//51 105//52 102//52 
f 101//50 103//51 100//51 
f 99//49 101//50 98//50 
f 97//48 99//49 96//49 
f 95//47 97//48 94//48 
f 1//46 95//47 93//47 
o mesh4
f 41//84 137//84 135//84 
f 13//84 161//84 159//84 
f 45//84 133//84 131//84 
f 43//84 135//84 133//84 
f 135//84 43//84 41//84 
f 39//84 37//84 139//84 
f 27//84 149//84 147//84 
f 25//84 23//84 151//84 
f 23//84 21//84 153//84 
f 159//84 15//84 13//84 
f 11//84 9//84 163//84 
f 51//84 49//84 129//84 
f 49//84 47//84 131//84 
f 133//84 45//84 43//84 
f 139//84 137//84 39//84 
f 147//84 29//84 27//84 
f 153//84 151//84 23//84 
f 15//84 159//84 157//84 
f 163//84 161//84 11//84 
f 69//84 67//84 113//84 
f 55//84 53//84 125//84 
f 53//84 51//84 127//84 
f 131//84 129//84 49//84 
f 41//84 39//84 137//84 
f 37//84 35//84 141//84 
f 151//84 149//84 25//84 
f 21//84 19//84 155//84 
f 17//84 157//84 155//84 
f 13//84 11//84 161//84 
f 71//84 111//84 109//84 
f 111//84 71//84 69//84 
f 67//84 65//84 115//84 
f 65//84 63//84 117//84 
f 57//84 123//84 121//84 
f 123//84 57//84 55//84 
f 129//84 127//84 51//84 
f 141//84 139//84 37//84 
f 31//84 145//84 143//84 
f 29//84 147//84 145//84 
f 155//84 153//84 21//84 
f 157//84 17//84 15//84 
f 83//84 81//84 101//84 
f 75//84 107//84 105//84 
f 73//84 109//84 107//84 
f 113//84 111//84 69//84 
f 117//84 115//84 65//84 
f 125//84 123//84 55//84 
f 131//84 47//84 45//84 
f 35//84 33//84 143//84 
f 145//84 31//84 29//84 
f 155//84 19//84 17//84 
f 9//84 7//84 164//84 
f 87//84 97//84 95//84 
f 85//84 99//84 97//84 
f 99//84 85//84 83//84 
f 81//84 79//84 103//84 
f 107//84 75//84 73//84 
f 115//84 113//84 67//84 
f 61//84 119//84 117//84 
f 59//84 121//84 119//84 
f 127//84 125//84 53//84 
f 143//84 33//84 31//84 
f 164//84 163//84 9//84 
f 7//84 6//84 92//84 
f 89//84 95//84 1//84 
f 97//84 87//84 85//84 
f 103//84 101//84 81//84 
f 79//84 77//84 105//84 
f 109//84 73//84 71//84 
f 119//84 61//84 59//84 
f 143//84 141//84 35//84 
f 92//84 164//84 7//84 
f 95//84 89//84 87//84 
f 105//84 103//84 79//84 
f 117//84 63//84 61//84 
f 27//84 25//84 149//84 
f 101//84 99//84 83//84 
f 121//84 59//84 57//84 
f 105//84 77//84 75//84 
f 1//84 4//84 89//84 
o mesh5
f 42//85 44//85 132//85 
f 14//85 16//85 156//85 
f 40//85 134//85 136//85 
f 134//85 40//85 42//85 
f 44//85 46//85 130//85 
f 46//85 48//85 128//85 
f 12//85 158//85 160//85 
f 158//85 12//85 14//85 
f 132//85 134//85 42//85 
f 128//85 130//85 46//85 
f 50//85 126//85 128//85 
f 52//85 124//85 126//85 
f 156//85 158//85 14//85 
f 16//85 18//85 154//85 
f 24//85 148//85 150//85 
f 26//85 146//85 148//85 
f 38//85 136//85 138//85 
f 130//85 132//85 44//85 
f 126//85 50//85 52//85 
f 54//85 122//85 124//85 
f 56//85 120//85 122//85 
f 70//85 108//85 110//85 
f 154//85 156//85 16//85 
f 18//85 20//85 152//85 
f 22//85 150//85 152//85 
f 148//85 24//85 26//85 
f 28//85 30//85 144//85 
f 30//85 32//85 142//85 
f 32//85 34//85 140//85 
f 136//85 38//85 40//85 
f 124//85 52//85 54//85 
f 122//85 54//85 56//85 
f 58//85 60//85 118//85 
f 66//85 112//85 114//85 
f 68//85 110//85 112//85 
f 110//85 68//85 70//85 
f 72//85 74//85 106//85 
f 10//85 160//85 162//85 
f 152//85 154//85 18//85 
f 150//85 22//85 24//85 
f 146//85 26//85 28//85 
f 140//85 142//85 32//85 
f 36//85 138//85 140//85 
f 128//85 48//85 50//85 
f 118//85 120//85 58//85 
f 60//85 62//85 116//85 
f 62//85 64//85 114//85 
f 112//85 66//85 68//85 
f 106//85 108//85 72//85 
f 84//85 96//85 98//85 
f 160//85 10//85 12//85 
f 144//85 146//85 28//85 
f 140//85 34//85 36//85 
f 56//85 58//85 120//85 
f 114//85 116//85 62//85 
f 70//85 72//85 108//85 
f 74//85 76//85 104//85 
f 76//85 78//85 102//85 
f 82//85 98//85 100//85 
f 98//85 82//85 84//85 
f 86//85 88//85 94//85 
f 88//85 90//85 93//85 
f 152//85 20//85 22//85 
f 138//85 36//85 38//85 
f 114//85 64//85 66//85 
f 102//85 104//85 76//85 
f 80//85 100//85 102//85 
f 84//85 86//85 96//85 
f 93//85 94//85 88//85 
f 90//85 3//85 2//85 
f 142//85 144//85 30//85 
f 104//85 106//85 74//85 
f 100//85 80//85 82//85 
f 2//85 93//85 90//85 
f 116//85 118//85 60//85 
f 94//85 96//85 86//85 
f 8//85 162//85 91//85 
f 102//85 78//85 80//85 
f 162//85 8//85 10//85 
f 91//85 5//85 8//85 
