# OBJ generated by ONSHAPE BY PTC INC, 1.191 Units = meters
mtllib block4.mtl
g Part 1
v -0.1524 0 0 
v 0 0 0 
v 0 2.4384 0 
v -0.1524 2.4384 0 
v -0.1524 0 -1.2192 
v 0 0 -1.2192 
v -0.1524 2.4384 -1.2192 
v 0 2.4384 -1.2192 
v -0.1524 2.2352 -1.0668 
v -0.1524 0.7112 -1.0668 
v -0.1524 0.7112 -0.1524 
v -0.1524 2.2352 -0.1524 
v 0 2.2352 -0.1524 
v 0 2.2352 -1.0668 
v 0 0.7112 -0.1524 
v 0 0.7112 -1.0668 
vn 0 0 1 
vn 0 -1 0 
vn 0 1.82123e-16 -1 
vn 0 1 0 
vn -1 0 0 
vn 1 0 0 
vn 0 1 0 
vn 0 7.28493e-17 -1 
vn 0 -1 0 
vn 0 0 1 
usemtl 0.615686_0.811765_0.929412_0.000000_0.000000
o mesh0
f 1//1 2//1 3//1 
f 3//1 4//1 1//1 
o mesh1
f 5//2 6//2 2//2 
f 2//2 1//2 5//2 
o mesh2
f 7//3 8//3 6//3 
f 6//3 5//3 7//3 
o mesh3
f 4//4 3//4 8//4 
f 8//4 7//4 4//4 
o mesh4
f 4//5 7//5 9//5 
f 7//5 5//5 10//5 
f 1//5 11//5 10//5 
f 4//5 12//5 11//5 
f 10//5 9//5 7//5 
f 11//5 1//5 4//5 
f 10//5 5//5 1//5 
f 9//5 12//5 4//5 
o mesh5
f 3//6 13//6 14//6 
f 3//6 2//6 15//6 
f 2//6 6//6 16//6 
f 8//6 14//6 16//6 
f 15//6 13//6 3//6 
f 16//6 6//6 8//6 
f 16//6 15//6 2//6 
f 14//6 8//6 3//6 
o mesh6
f 11//7 15//7 16//7 
f 16//7 10//7 11//7 
o mesh7
f 12//8 13//8 15//8 
f 15//8 11//8 12//8 
o mesh8
f 9//9 14//9 13//9 
f 13//9 12//9 9//9 
o mesh9
f 10//10 16//10 14//10 
f 14//10 9//10 10//10 
