# OBJ generated by ONSHAPE BY PTC INC, 1.191 Units = meters
mtllib roundcorner2ft.mtl
g Part 1
v 0.1524 2.7432 -0.6858 
v 0.1524 0 -0.6858 
v 1.11022e-16 0 -0.6858 
v 1.11022e-16 2.7432 -0.6858 
v 0.6858 0 1.11022e-16 
v 0.6858 2.7432 1.11022e-16 
v 0.660157 2.7432 -0.000479577 
v 0.660157 0 -0.000479577 
v 0.63455 2.7432 -0.00191764 
v 0.63455 0 -0.00191764 
v 0.609015 2.7432 -0.00431217 
v 0.609015 0 -0.00431217 
v 0.583587 2.7432 -0.00765982 
v 0.583587 0 -0.00765982 
v 0.558302 2.7432 -0.0119559 
v 0.558302 0 -0.0119559 
v 0.533195 2.7432 -0.0171944 
v 0.533195 0 -0.0171944 
v 0.508302 2.7432 -0.0233681 
v 0.508302 0 -0.0233681 
v 0.483657 2.7432 -0.0304682 
v 0.483657 0 -0.0304682 
v 0.459295 2.7432 -0.0384848 
v 0.459295 0 -0.0384848 
v 0.435249 2.7432 -0.0474068 
v 0.435249 0 -0.0474068 
v 0.411554 2.7432 -0.0572216 
v 0.411554 0 -0.0572216 
v 0.388243 2.7432 -0.0679156 
v 0.388243 0 -0.0679156 
v 0.365347 2.7432 -0.0794737 
v 0.365347 0 -0.0794737 
v 0.3429 2.7432 -0.0918798 
v 0.3429 0 -0.0918798 
v 0.320932 2.7432 -0.105117 
v 0.320932 0 -0.105117 
v 0.299475 2.7432 -0.119165 
v 0.299475 0 -0.119165 
v 0.278558 2.7432 -0.134007 
v 0.278558 0 -0.134007 
v 0.258211 2.7432 -0.14962 
v 0.258211 0 -0.14962 
v 0.238461 2.7432 -0.165983 
v 0.238461 0 -0.165983 
v 0.219338 2.7432 -0.183073 
v 0.219338 0 -0.183073 
v 0.200866 2.7432 -0.200866 
v 0.200866 0 -0.200866 
v 0.183073 2.7432 -0.219338 
v 0.183073 0 -0.219338 
v 0.165983 2.7432 -0.238461 
v 0.165983 0 -0.238461 
v 0.14962 2.7432 -0.258211 
v 0.14962 0 -0.258211 
v 0.134007 2.7432 -0.278558 
v 0.134007 0 -0.278558 
v 0.119165 2.7432 -0.299475 
v 0.119165 0 -0.299475 
v 0.105117 2.7432 -0.320932 
v 0.105117 0 -0.320932 
v 0.0918798 2.7432 -0.3429 
v 0.0918798 0 -0.3429 
v 0.0794737 2.7432 -0.365347 
v 0.0794737 0 -0.365347 
v 0.0679156 2.7432 -0.388243 
v 0.0679156 0 -0.388243 
v 0.0572216 2.7432 -0.411554 
v 0.0572216 0 -0.411554 
v 0.0474068 2.7432 -0.435249 
v 0.0474068 0 -0.435249 
v 0.0384848 2.7432 -0.459295 
v 0.0384848 0 -0.459295 
v 0.0304682 2.7432 -0.483657 
v 0.0304682 0 -0.483657 
v 0.0233681 2.7432 -0.508302 
v 0.0233681 0 -0.508302 
v 0.0171944 2.7432 -0.533195 
v 0.0171944 0 -0.533195 
v 0.0119559 2.7432 -0.558302 
v 0.0119559 0 -0.558302 
v 0.00765982 2.7432 -0.583587 
v 0.00765982 0 -0.583587 
v 0.00431217 2.7432 -0.609015 
v 0.00431217 0 -0.609015 
v 0.00191764 2.7432 -0.63455 
v 0.00191764 0 -0.63455 
v 0.000479577 2.7432 -0.660157 
v 0.000479577 0 -0.660157 
v 0.6858 0 -0.1524 
v 0.6858 2.7432 -0.1524 
v 0.152856 0 -0.663757 
v 0.154222 0 -0.641752 
v 0.152856 2.7432 -0.663757 
v 0.156496 0 -0.619822 
v 0.154222 2.7432 -0.641752 
v 0.159675 0 -0.598005 
v 0.156496 2.7432 -0.619822 
v 0.163752 0 -0.576338 
v 0.159675 2.7432 -0.598005 
v 0.168722 0 -0.554858 
v 0.163752 2.7432 -0.576338 
v 0.174575 0 -0.533602 
v 0.168722 2.7432 -0.554858 
v 0.181301 0 -0.512605 
v 0.174575 2.7432 -0.533602 
v 0.188889 0 -0.491905 
v 0.181301 2.7432 -0.512605 
v 0.197327 0 -0.471536 
v 0.188889 2.7432 -0.491905 
v 0.206598 0 -0.451533 
v 0.197327 2.7432 -0.471536 
v 0.216689 0 -0.43193 
v 0.206598 2.7432 -0.451533 
v 0.227581 0 -0.412761 
v 0.216689 2.7432 -0.43193 
v 0.239255 0 -0.394058 
v 0.227581 2.7432 -0.412761 
v 0.251693 0 -0.375854 
v 0.239255 2.7432 -0.394058 
v 0.264872 0 -0.358179 
v 0.251693 2.7432 -0.375854 
v 0.278771 0 -0.341064 
v 0.264872 2.7432 -0.358179 
v 0.293365 0 -0.324538 
v 0.278771 2.7432 -0.341064 
v 0.308629 0 -0.308629 
v 0.293365 2.7432 -0.324538 
v 0.324538 0 -0.293365 
v 0.308629 2.7432 -0.308629 
v 0.341064 0 -0.278771 
v 0.324538 2.7432 -0.293365 
v 0.358179 0 -0.264872 
v 0.341064 2.7432 -0.278771 
v 0.375854 0 -0.251693 
v 0.358179 2.7432 -0.264872 
v 0.394058 0 -0.239255 
v 0.375854 2.7432 -0.251693 
v 0.412761 0 -0.227581 
v 0.394058 2.7432 -0.239255 
v 0.43193 0 -0.216689 
v 0.412761 2.7432 -0.227581 
v 0.451533 0 -0.206598 
v 0.43193 2.7432 -0.216689 
v 0.471536 0 -0.197327 
v 0.451533 2.7432 -0.206598 
v 0.491905 0 -0.188889 
v 0.471536 2.7432 -0.197327 
v 0.512605 0 -0.181301 
v 0.491905 2.7432 -0.188889 
v 0.533602 0 -0.174575 
v 0.512605 2.7432 -0.181301 
v 0.554858 0 -0.168722 
v 0.533602 2.7432 -0.174575 
v 0.576338 0 -0.163752 
v 0.554858 2.7432 -0.168722 
v 0.598005 0 -0.159675 
v 0.576338 2.7432 -0.163752 
v 0.619822 0 -0.156496 
v 0.598005 2.7432 -0.159675 
v 0.641752 0 -0.154222 
v 0.619822 2.7432 -0.156496 
v 0.663757 0 -0.152856 
v 0.641752 2.7432 -0.154222 
v 0.663757 2.7432 -0.152856 
vn 0 0 -1 
vn 1.83697e-16 0 1 
vn -0.0373912 0 0.999301 
vn -0.0747301 0 0.997204 
vn -0.111964 0 0.993712 
vn -0.149042 0 0.988831 
vn -0.185912 0 0.982566 
vn -0.222521 0 0.974928 
vn -0.258819 0 0.965926 
vn -0.294755 0 0.955573 
vn -0.330279 0 0.943883 
vn -0.365341 0 0.930874 
vn -0.399892 0 0.916562 
vn -0.433884 0 0.900969 
vn -0.467269 0 0.884115 
vn -0.5 0 0.866025 
vn -0.532032 0 0.846724 
vn -0.56332 0 0.826239 
vn -0.59382 0 0.804598 
vn -0.62349 0 0.781831 
vn -0.652287 0 0.757972 
vn -0.680173 0 0.733052 
vn -0.707107 0 0.707107 
vn -0.733052 0 0.680173 
vn -0.757972 0 0.652287 
vn -0.781831 0 0.62349 
vn -0.804598 0 0.59382 
vn -0.826239 0 0.56332 
vn -0.846724 0 0.532032 
vn -0.866025 0 0.5 
vn -0.884115 0 0.467269 
vn -0.900969 0 0.433884 
vn -0.916562 0 0.399892 
vn -0.930874 0 0.365341 
vn -0.943883 0 0.330279 
vn -0.955573 0 0.294755 
vn -0.965926 0 0.258819 
vn -0.974928 0 0.222521 
vn -0.982566 0 0.185912 
vn -0.988831 0 0.149042 
vn -0.993712 0 0.111964 
vn -0.997204 0 0.0747301 
vn -0.999301 0 0.0373912 
vn -1 0 2.44929e-16 
vn 1 0 0 
vn 0.999146 0 -0.041325 
vn 0.996584 0 -0.0825793 
vn 0.992321 0 -0.123693 
vn 0.986361 0 -0.164595 
vn 0.978717 0 -0.205215 
vn 0.9694 0 -0.245485 
vn 0.958427 0 -0.285336 
vn 0.945817 0 -0.324699 
vn 0.931591 0 -0.363508 
vn 0.915773 0 -0.401695 
vn 0.898391 0 -0.439197 
vn 0.879474 0 -0.475947 
vn 0.859054 0 -0.511885 
vn 0.837166 0 -0.546948 
vn 0.813849 0 -0.581077 
vn 0.789141 0 -0.614213 
vn 0.763084 0 -0.646299 
vn 0.735724 0 -0.677282 
vn 0.707107 0 -0.707107 
vn 0.677282 0 -0.735724 
vn 0.646299 0 -0.763084 
vn 0.614213 0 -0.789141 
vn 0.581077 0 -0.813849 
vn 0.546948 0 -0.837166 
vn 0.511885 0 -0.859054 
vn 0.475947 0 -0.879474 
vn 0.439197 0 -0.898391 
vn 0.401695 0 -0.915773 
vn 0.363508 0 -0.931591 
vn 0.324699 0 -0.945817 
vn 0.285336 0 -0.958427 
vn 0.245485 0 -0.9694 
vn 0.205215 0 -0.978717 
vn 0.164595 0 -0.986361 
vn 0.123693 0 -0.992321 
vn 0.0825793 0 -0.996584 
vn 0.041325 0 -0.999146 
vn -1.83697e-16 0 -1 
vn 0 1 0 
vn 0 -1 0 
usemtl 0.615686_0.811765_0.929412_0.000000_0.000000
o mesh0
f 1//1 2//1 3//1 
f 3//1 4//1 1//1 
o mesh1
f 5//2 6//2 7//3 
f 8//3 7//3 9//4 
f 10//4 9//4 11//5 
f 12//5 11//5 13//6 
f 14//6 13//6 15//7 
f 16//7 15//7 17//8 
f 18//8 17//8 19//9 
f 20//9 19//9 21//10 
f 22//10 21//10 23//11 
f 24//11 23//11 25//12 
f 26//12 25//12 27//13 
f 28//13 27//13 29//14 
f 30//14 29//14 31//15 
f 32//15 31//15 33//16 
f 34//16 33//16 35//17 
f 36//17 35//17 37//18 
f 38//18 37//18 39//19 
f 40//19 39//19 41//20 
f 42//20 41//20 43//21 
f 44//21 43//21 45//22 
f 46//22 45//22 47//23 
f 48//23 47//23 49//24 
f 50//24 49//24 51//25 
f 52//25 51//25 53//26 
f 54//26 53//26 55//27 
f 56//27 55//27 57//28 
f 58//28 57//28 59//29 
f 60//29 59//29 61//30 
f 62//30 61//30 63//31 
f 64//31 63//31 65//32 
f 66//32 65//32 67//33 
f 68//33 67//33 69//34 
f 70//34 69//34 71//35 
f 72//35 71//35 73//36 
f 74//36 73//36 75//37 
f 76//37 75//37 77//38 
f 78//38 77//38 79//39 
f 80//39 79//39 81//40 
f 82//40 81//40 83//41 
f 84//41 83//41 85//42 
f 86//42 85//42 87//43 
f 88//43 87//43 4//44 
f 4//44 3//44 88//43 
f 87//43 88//43 86//42 
f 85//42 86//42 84//41 
f 83//41 84//41 82//40 
f 81//40 82//40 80//39 
f 79//39 80//39 78//38 
f 77//38 78//38 76//37 
f 75//37 76//37 74//36 
f 73//36 74//36 72//35 
f 71//35 72//35 70//34 
f 69//34 70//34 68//33 
f 67//33 68//33 66//32 
f 65//32 66//32 64//31 
f 63//31 64//31 62//30 
f 61//30 62//30 60//29 
f 59//29 60//29 58//28 
f 57//28 58//28 56//27 
f 55//27 56//27 54//26 
f 53//26 54//26 52//25 
f 51//25 52//25 50//24 
f 49//24 50//24 48//23 
f 47//23 48//23 46//22 
f 45//22 46//22 44//21 
f 43//21 44//21 42//20 
f 41//20 42//20 40//19 
f 39//19 40//19 38//18 
f 37//18 38//18 36//17 
f 35//17 36//17 34//16 
f 33//16 34//16 32//15 
f 31//15 32//15 30//14 
f 29//14 30//14 28//13 
f 27//13 28//13 26//12 
f 25//12 26//12 24//11 
f 23//11 24//11 22//10 
f 21//10 22//10 20//9 
f 19//9 20//9 18//8 
f 17//8 18//8 16//7 
f 15//7 16//7 14//6 
f 13//6 14//6 12//5 
f 11//5 12//5 10//4 
f 9//4 10//4 8//3 
f 7//3 8//3 5//2 
o mesh2
f 6//45 5//45 89//45 
f 89//45 90//45 6//45 
o mesh3
f 91//46 2//45 1//45 
f 92//47 91//46 93//46 
f 94//48 92//47 95//47 
f 96//49 94//48 97//48 
f 98//50 96//49 99//49 
f 100//51 98//50 101//50 
f 102//52 100//51 103//51 
f 104//53 102//52 105//52 
f 106//54 104//53 107//53 
f 108//55 106//54 109//54 
f 110//56 108//55 111//55 
f 112//57 110//56 113//56 
f 114//58 112//57 115//57 
f 116//59 114//58 117//58 
f 118//60 116//59 119//59 
f 120//61 118//60 121//60 
f 122//62 120//61 123//61 
f 124//63 122//62 125//62 
f 126//64 124//63 127//63 
f 128//65 126//64 129//64 
f 130//66 128//65 131//65 
f 132//67 130//66 133//66 
f 134//68 132//67 135//67 
f 136//69 134//68 137//68 
f 138//70 136//69 139//69 
f 140//71 138//70 141//70 
f 142//72 140//71 143//71 
f 144//73 142//72 145//72 
f 146//74 144//73 147//73 
f 148//75 146//74 149//74 
f 150//76 148//75 151//75 
f 152//77 150//76 153//76 
f 154//78 152//77 155//77 
f 156//79 154//78 157//78 
f 158//80 156//79 159//79 
f 160//81 158//80 161//80 
f 162//82 160//81 163//81 
f 89//83 162//82 164//82 
f 164//82 90//83 89//83 
f 163//81 164//82 162//82 
f 161//80 163//81 160//81 
f 159//79 161//80 158//80 
f 157//78 159//79 156//79 
f 155//77 157//78 154//78 
f 153//76 155//77 152//77 
f 151//75 153//76 150//76 
f 149//74 151//75 148//75 
f 147//73 149//74 146//74 
f 145//72 147//73 144//73 
f 143//71 145//72 142//72 
f 141//70 143//71 140//71 
f 139//69 141//70 138//70 
f 137//68 139//69 136//69 
f 135//67 137//68 134//68 
f 133//66 135//67 132//67 
f 131//65 133//66 130//66 
f 129//64 131//65 128//65 
f 127//63 129//64 126//64 
f 125//62 127//63 124//63 
f 123//61 125//62 122//62 
f 121//60 123//61 120//61 
f 119//59 121//60 118//60 
f 117//58 119//59 116//59 
f 115//57 117//58 114//58 
f 113//56 115//57 112//57 
f 111//55 113//56 110//56 
f 109//54 111//55 108//55 
f 107//53 109//54 106//54 
f 105//52 107//53 104//53 
f 103//51 105//52 102//52 
f 101//50 103//51 100//51 
f 99//49 101//50 98//50 
f 97//48 99//49 96//49 
f 95//47 97//48 94//48 
f 93//46 95//47 92//47 
f 1//45 93//46 91//46 
o mesh4
f 33//84 31//84 143//84 
f 31//84 29//84 145//84 
f 145//84 143//84 31//84 
f 29//84 27//84 147//84 
f 25//84 149//84 147//84 
f 23//84 151//84 149//84 
f 21//84 153//84 151//84 
f 19//84 155//84 153//84 
f 37//84 139//84 137//84 
f 147//84 145//84 29//84 
f 149//84 25//84 23//84 
f 153//84 21//84 19//84 
f 17//84 157//84 155//84 
f 71//84 69//84 109//84 
f 67//84 111//84 109//84 
f 41//84 135//84 133//84 
f 39//84 137//84 135//84 
f 137//84 39//84 37//84 
f 35//84 33//84 141//84 
f 147//84 27//84 25//84 
f 155//84 19//84 17//84 
f 15//84 13//84 159//84 
f 13//84 11//84 161//84 
f 11//84 9//84 163//84 
f 109//84 69//84 67//84 
f 65//84 113//84 111//84 
f 61//84 117//84 115//84 
f 59//84 119//84 117//84 
f 57//84 55//84 121//84 
f 45//84 131//84 129//84 
f 43//84 133//84 131//84 
f 135//84 41//84 39//84 
f 141//84 139//84 35//84 
f 151//84 23//84 21//84 
f 157//84 17//84 15//84 
f 163//84 161//84 11//84 
f 9//84 7//84 164//84 
f 87//84 93//84 1//84 
f 85//84 95//84 93//84 
f 83//84 97//84 95//84 
f 81//84 99//84 97//84 
f 79//84 101//84 99//84 
f 111//84 67//84 65//84 
f 63//84 115//84 113//84 
f 117//84 61//84 59//84 
f 119//84 59//84 57//84 
f 55//84 53//84 123//84 
f 53//84 51//84 125//84 
f 51//84 49//84 127//84 
f 49//84 47//84 129//84 
f 131//84 45//84 43//84 
f 37//84 35//84 139//84 
f 159//84 157//84 15//84 
f 164//84 163//84 9//84 
f 93//84 87//84 85//84 
f 97//84 83//84 81//84 
f 99//84 81//84 79//84 
f 77//84 75//84 103//84 
f 113//84 65//84 63//84 
f 121//84 119//84 57//84 
f 125//84 123//84 53//84 
f 129//84 127//84 49//84 
f 133//84 43//84 41//84 
f 161//84 159//84 13//84 
f 95//84 85//84 83//84 
f 103//84 101//84 77//84 
f 75//84 73//84 105//84 
f 73//84 71//84 107//84 
f 115//84 63//84 61//84 
f 127//84 125//84 51//84 
f 143//84 141//84 33//84 
f 7//84 6//84 90//84 
f 79//84 77//84 101//84 
f 107//84 105//84 73//84 
f 123//84 121//84 55//84 
f 90//84 164//84 7//84 
f 105//84 103//84 75//84 
f 129//84 47//84 45//84 
f 109//84 107//84 71//84 
f 1//84 4//84 87//84 
o mesh5
f 20//85 22//85 150//85 
f 22//85 24//85 148//85 
f 16//85 154//85 156//85 
f 18//85 20//85 152//85 
f 148//85 150//85 22//85 
f 156//85 14//85 16//85 
f 150//85 152//85 20//85 
f 24//85 26//85 146//85 
f 26//85 28//85 144//85 
f 32//85 140//85 142//85 
f 34//85 138//85 140//85 
f 12//85 158//85 160//85 
f 14//85 156//85 158//85 
f 152//85 154//85 18//85 
f 144//85 146//85 26//85 
f 30//85 142//85 144//85 
f 140//85 32//85 34//85 
f 38//85 40//85 134//85 
f 68//85 70//85 106//85 
f 72//85 104//85 106//85 
f 10//85 160//85 162//85 
f 158//85 12//85 14//85 
f 146//85 148//85 24//85 
f 142//85 30//85 32//85 
f 36//85 136//85 138//85 
f 136//85 36//85 38//85 
f 40//85 42//85 132//85 
f 42//85 44//85 130//85 
f 58//85 116//85 118//85 
f 60//85 62//85 114//85 
f 62//85 64//85 112//85 
f 66//85 68//85 108//85 
f 106//85 70//85 72//85 
f 160//85 10//85 12//85 
f 144//85 28//85 30//85 
f 134//85 136//85 38//85 
f 130//85 132//85 42//85 
f 44//85 46//85 128//85 
f 46//85 48//85 126//85 
f 50//85 124//85 126//85 
f 52//85 122//85 124//85 
f 54//85 120//85 122//85 
f 56//85 118//85 120//85 
f 118//85 56//85 58//85 
f 112//85 114//85 62//85 
f 64//85 66//85 110//85 
f 106//85 108//85 68//85 
f 8//85 162//85 89//85 
f 16//85 18//85 154//85 
f 132//85 134//85 40//85 
f 126//85 128//85 46//85 
f 124//85 50//85 52//85 
f 120//85 54//85 56//85 
f 114//85 116//85 60//85 
f 108//85 110//85 66//85 
f 162//85 8//85 10//85 
f 128//85 130//85 44//85 
f 122//85 52//85 54//85 
f 110//85 112//85 64//85 
f 80//85 82//85 96//85 
f 82//85 84//85 94//85 
f 84//85 86//85 92//85 
f 86//85 88//85 91//85 
f 88//85 3//85 2//85 
f 138//85 34//85 36//85 
f 58//85 60//85 116//85 
f 74//85 102//85 104//85 
f 76//85 100//85 102//85 
f 78//85 98//85 100//85 
f 98//85 78//85 80//85 
f 92//85 94//85 84//85 
f 2//85 91//85 88//85 
f 126//85 48//85 50//85 
f 102//85 74//85 76//85 
f 96//85 98//85 80//85 
f 91//85 92//85 86//85 
f 104//85 72//85 74//85 
f 94//85 96//85 82//85 
f 100//85 76//85 78//85 
f 89//85 5//85 8//85 
