# OBJ generated by ONSHAPE BY PTC INC, 1.191 Units = meters
mtllib roundcorner4ft.mtl
g Part 1
v 0.1524 2.7432 -1.2954 
v 0.1524 0 -1.2954 
v 0 0 -1.2954 
v 0 2.7432 -1.2954 
v 1.2954 0 0 
v 1.2954 2.7432 0 
v 1.26032 2.7432 -0.000475041 
v 1.26032 0 -0.000475041 
v 1.22527 2.7432 -0.00189982 
v 1.22527 0 -0.00189982 
v 1.19027 2.7432 -0.00427328 
v 1.19027 0 -0.00427328 
v 1.15534 2.7432 -0.00759369 
v 1.15534 0 -0.00759369 
v 1.12052 2.7432 -0.0118586 
v 1.12052 0 -0.0118586 
v 1.08583 2.7432 -0.0170649 
v 1.08583 0 -0.0170649 
v 1.05129 2.7432 -0.0232088 
v 1.05129 0 -0.0232088 
v 1.01693 2.7432 -0.0302857 
v 1.01693 0 -0.0302857 
v 0.982771 2.7432 -0.0382905 
v 0.982771 0 -0.0382905 
v 0.948844 2.7432 -0.0472173 
v 0.948844 0 -0.0472173 
v 0.915171 2.7432 -0.0570596 
v 0.915171 0 -0.0570596 
v 0.881777 2.7432 -0.0678101 
v 0.881777 0 -0.0678101 
v 0.848686 2.7432 -0.0794609 
v 0.848686 0 -0.0794609 
v 0.815923 2.7432 -0.0920036 
v 0.815923 0 -0.0920036 
v 0.783512 2.7432 -0.105429 
v 0.783512 0 -0.105429 
v 0.751476 2.7432 -0.119727 
v 0.751476 0 -0.119727 
v 0.719839 2.7432 -0.134887 
v 0.719839 0 -0.134887 
v 0.688624 2.7432 -0.150898 
v 0.688624 0 -0.150898 
v 0.657854 2.7432 -0.167749 
v 0.657854 0 -0.167749 
v 0.627552 2.7432 -0.185427 
v 0.627552 0 -0.185427 
v 0.597739 2.7432 -0.203919 
v 0.597739 0 -0.203919 
v 0.568438 2.7432 -0.223212 
v 0.568438 0 -0.223212 
v 0.539671 2.7432 -0.243291 
v 0.539671 0 -0.243291 
v 0.511457 2.7432 -0.264141 
v 0.511457 0 -0.264141 
v 0.483819 2.7432 -0.285748 
v 0.483819 0 -0.285748 
v 0.456776 2.7432 -0.308095 
v 0.456776 0 -0.308095 
v 0.430348 2.7432 -0.331167 
v 0.430348 0 -0.331167 
v 0.404554 2.7432 -0.354945 
v 0.404554 0 -0.354945 
v 0.379414 2.7432 -0.379414 
v 0.379414 0 -0.379414 
v 0.354945 2.7432 -0.404554 
v 0.354945 0 -0.404554 
v 0.331167 2.7432 -0.430348 
v 0.331167 0 -0.430348 
v 0.308095 2.7432 -0.456776 
v 0.308095 0 -0.456776 
v 0.285748 2.7432 -0.483819 
v 0.285748 0 -0.483819 
v 0.264141 2.7432 -0.511457 
v 0.264141 0 -0.511457 
v 0.243291 2.7432 -0.539671 
v 0.243291 0 -0.539671 
v 0.223212 2.7432 -0.568438 
v 0.223212 0 -0.568438 
v 0.203919 2.7432 -0.597739 
v 0.203919 0 -0.597739 
v 0.185427 2.7432 -0.627552 
v 0.185427 0 -0.627552 
v 0.167749 2.7432 -0.657854 
v 0.167749 0 -0.657854 
v 0.150898 2.7432 -0.688624 
v 0.150898 0 -0.688624 
v 0.134887 2.7432 -0.719839 
v 0.134887 0 -0.719839 
v 0.119727 2.7432 -0.751476 
v 0.119727 0 -0.751476 
v 0.105429 2.7432 -0.783512 
v 0.105429 0 -0.783512 
v 0.0920036 2.7432 -0.815923 
v 0.0920036 0 -0.815923 
v 0.0794609 2.7432 -0.848686 
v 0.0794609 0 -0.848686 
v 0.0678101 2.7432 -0.881777 
v 0.0678101 0 -0.881777 
v 0.0570596 2.7432 -0.915171 
v 0.0570596 0 -0.915171 
v 0.0472173 2.7432 -0.948844 
v 0.0472173 0 -0.948844 
v 0.0382905 2.7432 -0.982771 
v 0.0382905 0 -0.982771 
v 0.0302857 2.7432 -1.01693 
v 0.0302857 0 -1.01693 
v 0.0232088 2.7432 -1.05129 
v 0.0232088 0 -1.05129 
v 0.0170649 2.7432 -1.08583 
v 0.0170649 0 -1.08583 
v 0.0118586 2.7432 -1.12052 
v 0.0118586 0 -1.12052 
v 0.00759369 2.7432 -1.15534 
v 0.00759369 0 -1.15534 
v 0.00427328 2.7432 -1.19027 
v 0.00427328 0 -1.19027 
v 0.00189982 2.7432 -1.22527 
v 0.00189982 0 -1.22527 
v 0.000475041 2.7432 -1.26032 
v 0.000475041 0 -1.26032 
v 1.2954 0 -0.1524 
v 1.2954 2.7432 -0.1524 
v 0.152866 0 -1.26276 
v 0.154264 0 -1.23015 
v 0.152866 2.7432 -1.26276 
v 0.156593 0 -1.19759 
v 0.154264 2.7432 -1.23015 
v 0.15985 0 -1.16511 
v 0.156593 2.7432 -1.19759 
v 0.164034 0 -1.13273 
v 0.15985 2.7432 -1.16511 
v 0.169141 0 -1.10049 
v 0.164034 2.7432 -1.13273 
v 0.175166 0 -1.06841 
v 0.169141 2.7432 -1.10049 
v 0.182104 0 -1.03651 
v 0.175166 2.7432 -1.06841 
v 0.189951 0 -1.00483 
v 0.182104 2.7432 -1.03651 
v 0.1987 0 -0.97338 
v 0.189951 2.7432 -1.00483 
v 0.208342 0 -0.942194 
v 0.1987 2.7432 -0.97338 
v 0.218872 0 -0.911296 
v 0.208342 2.7432 -0.942194 
v 0.230279 0 -0.880711 
v 0.218872 2.7432 -0.911296 
v 0.242556 0 -0.850464 
v 0.230279 2.7432 -0.880711 
v 0.255691 0 -0.820581 
v 0.242556 2.7432 -0.850464 
v 0.269674 0 -0.791084 
v 0.255691 2.7432 -0.820581 
v 0.284493 0 -0.761999 
v 0.269674 2.7432 -0.791084 
v 0.300137 0 -0.733349 
v 0.284493 2.7432 -0.761999 
v 0.316593 0 -0.705158 
v 0.300137 2.7432 -0.733349 
v 0.333847 0 -0.677448 
v 0.316593 2.7432 -0.705158 
v 0.351886 0 -0.650241 
v 0.333847 2.7432 -0.677448 
v 0.370694 0 -0.623561 
v 0.351886 2.7432 -0.650241 
v 0.390256 0 -0.597429 
v 0.370694 2.7432 -0.623561 
v 0.410556 0 -0.571867 
v 0.390256 2.7432 -0.597429 
v 0.431578 0 -0.546894 
v 0.410556 2.7432 -0.571867 
v 0.453305 0 -0.522532 
v 0.431578 2.7432 -0.546894 
v 0.475718 0 -0.4988 
v 0.453305 2.7432 -0.522532 
v 0.4988 0 -0.475718 
v 0.475718 2.7432 -0.4988 
v 0.522532 0 -0.453305 
v 0.4988 2.7432 -0.475718 
v 0.546894 0 -0.431578 
v 0.522532 2.7432 -0.453305 
v 0.571867 0 -0.410556 
v 0.546894 2.7432 -0.431578 
v 0.597429 0 -0.390256 
v 0.571867 2.7432 -0.410556 
v 0.623561 0 -0.370694 
v 0.597429 2.7432 -0.390256 
v 0.650241 0 -0.351886 
v 0.623561 2.7432 -0.370694 
v 0.677448 0 -0.333847 
v 0.650241 2.7432 -0.351886 
v 0.705158 0 -0.316593 
v 0.677448 2.7432 -0.333847 
v 0.733349 0 -0.300137 
v 0.705158 2.7432 -0.316593 
v 0.761999 0 -0.284493 
v 0.733349 2.7432 -0.300137 
v 0.791084 0 -0.269674 
v 0.761999 2.7432 -0.284493 
v 0.820581 0 -0.255691 
v 0.791084 2.7432 -0.269674 
v 0.850464 0 -0.242556 
v 0.820581 2.7432 -0.255691 
v 0.880711 0 -0.230279 
v 0.850464 2.7432 -0.242556 
v 0.911296 0 -0.218872 
v 0.880711 2.7432 -0.230279 
v 0.942194 0 -0.208342 
v 0.911296 2.7432 -0.218872 
v 0.97338 0 -0.1987 
v 0.942194 2.7432 -0.208342 
v 1.00483 0 -0.189951 
v 0.97338 2.7432 -0.1987 
v 1.03651 0 -0.182104 
v 1.00483 2.7432 -0.189951 
v 1.06841 0 -0.175166 
v 1.03651 2.7432 -0.182104 
v 1.10049 0 -0.169141 
v 1.06841 2.7432 -0.175166 
v 1.13273 0 -0.164034 
v 1.10049 2.7432 -0.169141 
v 1.16511 0 -0.15985 
v 1.13273 2.7432 -0.164034 
v 1.19759 0 -0.156593 
v 1.16511 2.7432 -0.15985 
v 1.23015 0 -0.154264 
v 1.19759 2.7432 -0.156593 
v 1.26276 0 -0.152866 
v 1.23015 2.7432 -0.154264 
v 1.26276 2.7432 -0.152866 
vn 0 0 -1 
vn 1.83697e-16 0 1 
vn -0.0270794 0 0.999633 
vn -0.0541389 0 0.998533 
vn -0.0811587 0 0.996701 
vn -0.108119 0 0.994138 
vn -0.135 0 0.990846 
vn -0.161782 0 0.986827 
vn -0.188445 0 0.982084 
vn -0.21497 0 0.976621 
vn -0.241338 0 0.970441 
vn -0.267528 0 0.96355 
vn -0.293523 0 0.955952 
vn -0.319302 0 0.947653 
vn -0.344846 0 0.938659 
vn -0.370138 0 0.928977 
vn -0.395159 0 0.918613 
vn -0.419889 0 0.907575 
vn -0.444312 0 0.895872 
vn -0.468408 0 0.883512 
vn -0.492162 0 0.870504 
vn -0.515554 0 0.856857 
vn -0.538568 0 0.842582 
vn -0.561187 0 0.827689 
vn -0.583395 0 0.812189 
vn -0.605174 0 0.796093 
vn -0.62651 0 0.779413 
vn -0.647386 0 0.762162 
vn -0.667788 0 0.744352 
vn -0.687699 0 0.725995 
vn -0.707107 0 0.707107 
vn -0.725995 0 0.687699 
vn -0.744352 0 0.667788 
vn -0.762162 0 0.647386 
vn -0.779413 0 0.62651 
vn -0.796093 0 0.605174 
vn -0.812189 0 0.583395 
vn -0.827689 0 0.561187 
vn -0.842582 0 0.538568 
vn -0.856857 0 0.515554 
vn -0.870504 0 0.492162 
vn -0.883512 0 0.468408 
vn -0.895872 0 0.444312 
vn -0.907575 0 0.419889 
vn -0.918613 0 0.395159 
vn -0.928977 0 0.370138 
vn -0.938659 0 0.344846 
vn -0.947653 0 0.319302 
vn -0.955952 0 0.293523 
vn -0.96355 0 0.267528 
vn -0.970441 0 0.241338 
vn -0.976621 0 0.21497 
vn -0.982084 0 0.188445 
vn -0.986827 0 0.161782 
vn -0.990846 0 0.135 
vn -0.994138 0 0.108119 
vn -0.996701 0 0.0811587 
vn -0.998533 0 0.0541389 
vn -0.999633 0 0.0270794 
vn -1 0 2.44929e-16 
vn 1 0 0 
vn 0.999592 0 -0.0285561 
vn 0.998369 0 -0.0570888 
vn 0.996332 0 -0.085575 
vn 0.993482 0 -0.113991 
vn 0.989821 0 -0.142315 
vn 0.985354 0 -0.170522 
vn 0.980083 0 -0.19859 
vn 0.974012 0 -0.226497 
vn 0.967147 0 -0.254218 
vn 0.959493 0 -0.281733 
vn 0.951057 0 -0.309017 
vn 0.941844 0 -0.336049 
vn 0.931864 0 -0.362808 
vn 0.921124 0 -0.38927 
vn 0.909632 0 -0.415415 
vn 0.897398 0 -0.441221 
vn 0.884433 0 -0.466667 
vn 0.870746 0 -0.491733 
vn 0.856349 0 -0.516397 
vn 0.841254 0 -0.540641 
vn 0.825472 0 -0.564443 
vn 0.809017 0 -0.587785 
vn 0.791902 0 -0.610648 
vn 0.774142 0 -0.633012 
vn 0.75575 0 -0.654861 
vn 0.736741 0 -0.676175 
vn 0.717132 0 -0.696938 
vn 0.696938 0 -0.717132 
vn 0.676175 0 -0.736741 
vn 0.654861 0 -0.75575 
vn 0.633012 0 -0.774142 
vn 0.610648 0 -0.791902 
vn 0.587785 0 -0.809017 
vn 0.564443 0 -0.825472 
vn 0.540641 0 -0.841254 
vn 0.516397 0 -0.856349 
vn 0.491733 0 -0.870746 
vn 0.466667 0 -0.884433 
vn 0.441221 0 -0.897398 
vn 0.415415 0 -0.909632 
vn 0.38927 0 -0.921124 
vn 0.362808 0 -0.931864 
vn 0.336049 0 -0.941844 
vn 0.309017 0 -0.951057 
vn 0.281733 0 -0.959493 
vn 0.254218 0 -0.967147 
vn 0.226497 0 -0.974012 
vn 0.19859 0 -0.980083 
vn 0.170522 0 -0.985354 
vn 0.142315 0 -0.989821 
vn 0.113991 0 -0.993482 
vn 0.085575 0 -0.996332 
vn 0.0570888 0 -0.998369 
vn 0.0285561 0 -0.999592 
vn -1.83697e-16 0 -1 
vn 0 1 0 
vn 0 -1 0 
usemtl 0.615686_0.811765_0.929412_0.000000_0.000000
o mesh0
f 1//1 2//1 3//1 
f 3//1 4//1 1//1 
o mesh1
f 5//2 6//2 7//3 
f 8//3 7//3 9//4 
f 10//4 9//4 11//5 
f 12//5 11//5 13//6 
f 14//6 13//6 15//7 
f 16//7 15//7 17//8 
f 18//8 17//8 19//9 
f 20//9 19//9 21//10 
f 22//10 21//10 23//11 
f 24//11 23//11 25//12 
f 26//12 25//12 27//13 
f 28//13 27//13 29//14 
f 30//14 29//14 31//15 
f 32//15 31//15 33//16 
f 34//16 33//16 35//17 
f 36//17 35//17 37//18 
f 38//18 37//18 39//19 
f 40//19 39//19 41//20 
f 42//20 41//20 43//21 
f 44//21 43//21 45//22 
f 46//22 45//22 47//23 
f 48//23 47//23 49//24 
f 50//24 49//24 51//25 
f 52//25 51//25 53//26 
f 54//26 53//26 55//27 
f 56//27 55//27 57//28 
f 58//28 57//28 59//29 
f 60//29 59//29 61//30 
f 62//30 61//30 63//31 
f 64//31 63//31 65//32 
f 66//32 65//32 67//33 
f 68//33 67//33 69//34 
f 70//34 69//34 71//35 
f 72//35 71//35 73//36 
f 74//36 73//36 75//37 
f 76//37 75//37 77//38 
f 78//38 77//38 79//39 
f 80//39 79//39 81//40 
f 82//40 81//40 83//41 
f 84//41 83//41 85//42 
f 86//42 85//42 87//43 
f 88//43 87//43 89//44 
f 90//44 89//44 91//45 
f 92//45 91//45 93//46 
f 94//46 93//46 95//47 
f 96//47 95//47 97//48 
f 98//48 97//48 99//49 
f 100//49 99//49 101//50 
f 102//50 101//50 103//51 
f 104//51 103//51 105//52 
f 106//52 105//52 107//53 
f 108//53 107//53 109//54 
f 110//54 109//54 111//55 
f 112//55 111//55 113//56 
f 114//56 113//56 115//57 
f 116//57 115//57 117//58 
f 118//58 117//58 119//59 
f 120//59 119//59 4//60 
f 4//60 3//60 120//59 
f 119//59 120//59 118//58 
f 117//58 118//58 116//57 
f 115//57 116//57 114//56 
f 113//56 114//56 112//55 
f 111//55 112//55 110//54 
f 109//54 110//54 108//53 
f 107//53 108//53 106//52 
f 105//52 106//52 104//51 
f 103//51 104//51 102//50 
f 101//50 102//50 100//49 
f 99//49 100//49 98//48 
f 97//48 98//48 96//47 
f 95//47 96//47 94//46 
f 93//46 94//46 92//45 
f 91//45 92//45 90//44 
f 89//44 90//44 88//43 
f 87//43 88//43 86//42 
f 85//42 86//42 84//41 
f 83//41 84//41 82//40 
f 81//40 82//40 80//39 
f 79//39 80//39 78//38 
f 77//38 78//38 76//37 
f 75//37 76//37 74//36 
f 73//36 74//36 72//35 
f 71//35 72//35 70//34 
f 69//34 70//34 68//33 
f 67//33 68//33 66//32 
f 65//32 66//32 64//31 
f 63//31 64//31 62//30 
f 61//30 62//30 60//29 
f 59//29 60//29 58//28 
f 57//28 58//28 56//27 
f 55//27 56//27 54//26 
f 53//26 54//26 52//25 
f 51//25 52//25 50//24 
f 49//24 50//24 48//23 
f 47//23 48//23 46//22 
f 45//22 46//22 44//21 
f 43//21 44//21 42//20 
f 41//20 42//20 40//19 
f 39//19 40//19 38//18 
f 37//18 38//18 36//17 
f 35//17 36//17 34//16 
f 33//16 34//16 32//15 
f 31//15 32//15 30//14 
f 29//14 30//14 28//13 
f 27//13 28//13 26//12 
f 25//12 26//12 24//11 
f 23//11 24//11 22//10 
f 21//10 22//10 20//9 
f 19//9 20//9 18//8 
f 17//8 18//8 16//7 
f 15//7 16//7 14//6 
f 13//6 14//6 12//5 
f 11//5 12//5 10//4 
f 9//4 10//4 8//3 
f 7//3 8//3 5//2 
o mesh2
f 6//61 5//61 121//61 
f 121//61 122//61 6//61 
o mesh3
f 123//62 2//61 1//61 
f 124//63 123//62 125//62 
f 126//64 124//63 127//63 
f 128//65 126//64 129//64 
f 130//66 128//65 131//65 
f 132//67 130//66 133//66 
f 134//68 132//67 135//67 
f 136//69 134//68 137//68 
f 138//70 136//69 139//69 
f 140//71 138//70 141//70 
f 142//72 140//71 143//71 
f 144//73 142//72 145//72 
f 146//74 144//73 147//73 
f 148//75 146//74 149//74 
f 150//76 148//75 151//75 
f 152//77 150//76 153//76 
f 154//78 152//77 155//77 
f 156//79 154//78 157//78 
f 158//80 156//79 159//79 
f 160//81 158//80 161//80 
f 162//82 160//81 163//81 
f 164//83 162//82 165//82 
f 166//84 164//83 167//83 
f 168//85 166//84 169//84 
f 170//86 168//85 171//85 
f 172//87 170//86 173//86 
f 174//88 172//87 175//87 
f 176//89 174//88 177//88 
f 178//90 176//89 179//89 
f 180//91 178//90 181//90 
f 182//92 180//91 183//91 
f 184//93 182//92 185//92 
f 186//94 184//93 187//93 
f 188//95 186//94 189//94 
f 190//96 188//95 191//95 
f 192//97 190//96 193//96 
f 194//98 192//97 195//97 
f 196//99 194//98 197//98 
f 198//100 196//99 199//99 
f 200//101 198//100 201//100 
f 202//102 200//101 203//101 
f 204//103 202//102 205//102 
f 206//104 204//103 207//103 
f 208//105 206//104 209//104 
f 210//106 208//105 211//105 
f 212//107 210//106 213//106 
f 214//108 212//107 215//107 
f 216//109 214//108 217//108 
f 218//110 216//109 219//109 
f 220//111 218//110 221//110 
f 222//112 220//111 223//111 
f 224//113 222//112 225//112 
f 226//114 224//113 227//113 
f 228//115 226//114 229//114 
f 121//116 228//115 230//115 
f 230//115 122//116 121//116 
f 229//114 230//115 228//115 
f 227//113 229//114 226//114 
f 225//112 227//113 224//113 
f 223//111 225//112 222//112 
f 221//110 223//111 220//111 
f 219//109 221//110 218//110 
f 217//108 219//109 216//109 
f 215//107 217//108 214//108 
f 213//106 215//107 212//107 
f 211//105 213//106 210//106 
f 209//104 211//105 208//105 
f 207//103 209//104 206//104 
f 205//102 207//103 204//103 
f 203//101 205//102 202//102 
f 201//100 203//101 200//101 
f 199//99 201//100 198//100 
f 197//98 199//99 196//99 
f 195//97 197//98 194//98 
f 193//96 195//97 192//97 
f 191//95 193//96 190//96 
f 189//94 191//95 188//95 
f 187//93 189//94 186//94 
f 185//92 187//93 184//93 
f 183//91 185//92 182//92 
f 181//90 183//91 180//91 
f 179//89 181//90 178//90 
f 177//88 179//89 176//89 
f 175//87 177//88 174//88 
f 173//86 175//87 172//87 
f 171//85 173//86 170//86 
f 169//84 171//85 168//85 
f 167//83 169//84 166//84 
f 165//82 167//83 164//83 
f 163//81 165//82 162//82 
f 161//80 163//81 160//81 
f 159//79 161//80 158//80 
f 157//78 159//79 156//79 
f 155//77 157//78 154//78 
f 153//76 155//77 152//77 
f 151//75 153//76 150//76 
f 149//74 151//75 148//75 
f 147//73 149//74 146//74 
f 145//72 147//73 144//73 
f 143//71 145//72 142//72 
f 141//70 143//71 140//71 
f 139//69 141//70 138//70 
f 137//68 139//69 136//69 
f 135//67 137//68 134//68 
f 133//66 135//67 132//67 
f 131//65 133//66 130//66 
f 129//64 131//65 128//65 
f 127//63 129//64 126//64 
f 125//62 127//63 124//63 
f 1//61 125//62 123//62 
o mesh4
f 69//117 173//117 171//117 
f 67//117 175//117 173//117 
f 63//117 61//117 179//117 
f 93//117 91//117 151//117 
f 91//117 89//117 153//117 
f 79//117 163//117 161//117 
f 77//117 165//117 163//117 
f 173//117 69//117 67//117 
f 65//117 177//117 175//117 
f 177//117 65//117 63//117 
f 61//117 59//117 181//117 
f 153//117 151//117 91//117 
f 89//117 87//117 155//117 
f 163//117 79//117 77//117 
f 75//117 167//117 165//117 
f 73//117 169//117 167//117 
f 71//117 171//117 169//117 
f 175//117 67//117 65//117 
f 181//117 179//117 61//117 
f 59//117 57//117 183//117 
f 57//117 55//117 185//117 
f 25//117 215//117 213//117 
f 105//117 139//117 137//117 
f 103//117 141//117 139//117 
f 155//117 153//117 89//117 
f 87//117 85//117 157//117 
f 85//117 83//117 159//117 
f 81//117 161//117 159//117 
f 165//117 77//117 75//117 
f 169//117 73//117 71//117 
f 179//117 177//117 63//117 
f 185//117 183//117 57//117 
f 49//117 47//117 193//117 
f 47//117 45//117 195//117 
f 45//117 43//117 197//117 
f 41//117 199//117 197//117 
f 35//117 205//117 203//117 
f 33//117 207//117 205//117 
f 213//117 27//117 25//117 
f 23//117 21//117 217//117 
f 111//117 133//117 131//117 
f 109//117 135//117 133//117 
f 107//117 137//117 135//117 
f 139//117 105//117 103//117 
f 101//117 99//117 143//117 
f 157//117 155//117 87//117 
f 159//117 83//117 81//117 
f 167//117 75//117 73//117 
f 183//117 181//117 59//117 
f 55//117 53//117 187//117 
f 53//117 51//117 189//117 
f 51//117 49//117 191//117 
f 195//117 193//117 47//117 
f 197//117 43//117 41//117 
f 39//117 201//117 199//117 
f 37//117 203//117 201//117 
f 205//117 35//117 33//117 
f 31//117 209//117 207//117 
f 29//117 211//117 209//117 
f 27//117 213//117 211//117 
f 217//117 215//117 23//117 
f 15//117 13//117 225//117 
f 13//117 11//117 227//117 
f 133//117 111//117 109//117 
f 137//117 107//117 105//117 
f 141//117 103//117 101//117 
f 99//117 97//117 145//117 
f 159//117 157//117 85//117 
f 171//117 71//117 69//117 
f 189//117 187//117 53//117 
f 193//117 191//117 49//117 
f 199//117 41//117 39//117 
f 203//117 37//117 35//117 
f 209//117 31//117 29//117 
f 25//117 23//117 215//117 
f 21//117 19//117 219//117 
f 19//117 17//117 221//117 
f 17//117 15//117 223//117 
f 227//117 225//117 13//117 
f 9//117 7//117 230//117 
f 7//117 6//117 122//117 
f 119//117 125//117 1//117 
f 117//117 127//117 125//117 
f 115//117 129//117 127//117 
f 113//117 131//117 129//117 
f 135//117 109//117 107//117 
f 145//117 143//117 99//117 
f 97//117 95//117 147//117 
f 95//117 93//117 149//117 
f 161//117 81//117 79//117 
f 191//117 189//117 51//117 
f 201//117 39//117 37//117 
f 211//117 29//117 27//117 
f 221//117 219//117 19//117 
f 225//117 223//117 15//117 
f 11//117 9//117 229//117 
f 122//117 230//117 7//117 
f 125//117 119//117 117//117 
f 129//117 115//117 113//117 
f 143//117 141//117 101//117 
f 149//117 147//117 95//117 
f 187//117 185//117 55//117 
f 207//117 33//117 31//117 
f 223//117 221//117 17//117 
f 230//117 229//117 9//117 
f 127//117 117//117 115//117 
f 147//117 145//117 97//117 
f 197//117 195//117 45//117 
f 229//117 227//117 11//117 
f 131//117 113//117 111//117 
f 219//117 217//117 21//117 
f 151//117 149//117 93//117 
f 1//117 4//117 119//117 
o mesh5
f 64//118 174//118 176//118 
f 68//118 70//118 170//118 
f 70//118 72//118 168//118 
f 62//118 176//118 178//118 
f 176//118 62//118 64//118 
f 66//118 68//118 172//118 
f 168//118 170//118 70//118 
f 26//118 28//118 210//118 
f 58//118 180//118 182//118 
f 60//118 178//118 180//118 
f 64//118 66//118 174//118 
f 170//118 172//118 68//118 
f 92//118 148//118 150//118 
f 94//118 146//118 148//118 
f 14//118 222//118 224//118 
f 16//118 220//118 222//118 
f 24//118 212//118 214//118 
f 212//118 24//118 26//118 
f 34//118 36//118 202//118 
f 36//118 38//118 200//118 
f 42//118 44//118 194//118 
f 46//118 192//118 194//118 
f 180//118 58//118 60//118 
f 172//118 174//118 66//118 
f 72//118 74//118 166//118 
f 74//118 76//118 164//118 
f 78//118 80//118 160//118 
f 80//118 82//118 158//118 
f 90//118 150//118 152//118 
f 148//118 92//118 94//118 
f 104//118 106//118 136//118 
f 106//118 108//118 134//118 
f 8//118 228//118 121//118 
f 10//118 226//118 228//118 
f 222//118 14//118 16//118 
f 18//118 218//118 220//118 
f 20//118 216//118 218//118 
f 22//118 214//118 216//118 
f 210//118 212//118 26//118 
f 28//118 30//118 208//118 
f 30//118 32//118 206//118 
f 32//118 34//118 204//118 
f 200//118 202//118 36//118 
f 38//118 40//118 198//118 
f 40//118 42//118 196//118 
f 194//118 44//118 46//118 
f 48//118 190//118 192//118 
f 50//118 188//118 190//118 
f 178//118 60//118 62//118 
f 164//118 166//118 74//118 
f 76//118 78//118 162//118 
f 158//118 160//118 80//118 
f 82//118 84//118 156//118 
f 86//118 154//118 156//118 
f 88//118 152//118 154//118 
f 150//118 90//118 92//118 
f 102//118 138//118 140//118 
f 134//118 136//118 106//118 
f 108//118 110//118 132//118 
f 110//118 112//118 130//118 
f 112//118 114//118 128//118 
f 228//118 8//118 10//118 
f 12//118 224//118 226//118 
f 220//118 16//118 18//118 
f 216//118 20//118 22//118 
f 208//118 210//118 28//118 
f 204//118 206//118 32//118 
f 198//118 200//118 38//118 
f 194//118 196//118 42//118 
f 190//118 48//118 50//118 
f 52//118 186//118 188//118 
f 54//118 184//118 186//118 
f 56//118 182//118 184//118 
f 166//118 168//118 72//118 
f 160//118 162//118 78//118 
f 156//118 84//118 86//118 
f 152//118 88//118 90//118 
f 100//118 140//118 142//118 
f 140//118 100//118 102//118 
f 132//118 134//118 108//118 
f 128//118 130//118 112//118 
f 226//118 10//118 12//118 
f 218//118 18//118 20//118 
f 206//118 208//118 30//118 
f 196//118 198//118 40//118 
f 188//118 50//118 52//118 
f 184//118 54//118 56//118 
f 162//118 164//118 76//118 
f 154//118 86//118 88//118 
f 96//118 144//118 146//118 
f 98//118 142//118 144//118 
f 102//118 104//118 138//118 
f 130//118 132//118 110//118 
f 114//118 116//118 126//118 
f 116//118 118//118 124//118 
f 118//118 120//118 123//118 
f 120//118 3//118 2//118 
f 224//118 12//118 14//118 
f 202//118 204//118 34//118 
f 186//118 52//118 54//118 
f 156//118 158//118 82//118 
f 144//118 96//118 98//118 
f 136//118 138//118 104//118 
f 124//118 126//118 116//118 
f 2//118 123//118 120//118 
f 214//118 22//118 24//118 
f 182//118 56//118 58//118 
f 142//118 98//118 100//118 
f 123//118 124//118 118//118 
f 192//118 46//118 48//118 
f 126//118 128//118 114//118 
f 146//118 94//118 96//118 
f 121//118 5//118 8//118 
