# OBJ generated by ONSHAPE BY PTC INC, 1.191 Units = meters
mtllib roundcorner4ft.mtl
g Part 1
v 0.1778 2.7432 -1.3081 
v 0.1778 0 -1.3081 
v 0 0 -1.3081 
v 0 2.7432 -1.3081 
v 1.3081 0 0 
v 1.3081 2.7432 0 
v 1.27268 2.7432 -0.000479698 
v 1.27268 0 -0.000479698 
v 1.23728 2.7432 -0.00191844 
v 1.23728 0 -0.00191844 
v 1.20194 2.7432 -0.00431517 
v 1.20194 0 -0.00431517 
v 1.16667 2.7432 -0.00766814 
v 1.16667 0 -0.00766814 
v 1.13151 2.7432 -0.0119749 
v 1.13151 0 -0.0119749 
v 1.09647 2.7432 -0.0172322 
v 1.09647 0 -0.0172322 
v 1.06159 2.7432 -0.0234363 
v 1.06159 0 -0.0234363 
v 1.0269 2.7432 -0.0305827 
v 1.0269 0 -0.0305827 
v 0.992406 2.7432 -0.0386659 
v 0.992406 0 -0.0386659 
v 0.958146 2.7432 -0.0476803 
v 0.958146 0 -0.0476803 
v 0.924143 2.7432 -0.057619 
v 0.924143 0 -0.057619 
v 0.890422 2.7432 -0.0684749 
v 0.890422 0 -0.0684749 
v 0.857007 2.7432 -0.0802399 
v 0.857007 0 -0.0802399 
v 0.823922 2.7432 -0.0929056 
v 0.823922 0 -0.0929056 
v 0.791193 2.7432 -0.106462 
v 0.791193 0 -0.106462 
v 0.758843 2.7432 -0.120901 
v 0.758843 0 -0.120901 
v 0.726896 2.7432 -0.136209 
v 0.726896 0 -0.136209 
v 0.695375 2.7432 -0.152378 
v 0.695375 0 -0.152378 
v 0.664303 2.7432 -0.169394 
v 0.664303 0 -0.169394 
v 0.633704 2.7432 -0.187245 
v 0.633704 0 -0.187245 
v 0.603599 2.7432 -0.205918 
v 0.603599 0 -0.205918 
v 0.574011 2.7432 -0.2254 
v 0.574011 0 -0.2254 
v 0.544962 2.7432 -0.245676 
v 0.544962 0 -0.245676 
v 0.516472 2.7432 -0.266731 
v 0.516472 0 -0.266731 
v 0.488562 2.7432 -0.288549 
v 0.488562 0 -0.288549 
v 0.461254 2.7432 -0.311116 
v 0.461254 0 -0.311116 
v 0.434567 2.7432 -0.334413 
v 0.434567 0 -0.334413 
v 0.40852 2.7432 -0.358425 
v 0.40852 0 -0.358425 
v 0.383134 2.7432 -0.383134 
v 0.383134 0 -0.383134 
v 0.358425 2.7432 -0.40852 
v 0.358425 0 -0.40852 
v 0.334413 2.7432 -0.434567 
v 0.334413 0 -0.434567 
v 0.311116 2.7432 -0.461254 
v 0.311116 0 -0.461254 
v 0.288549 2.7432 -0.488562 
v 0.288549 0 -0.488562 
v 0.266731 2.7432 -0.516472 
v 0.266731 0 -0.516472 
v 0.245676 2.7432 -0.544962 
v 0.245676 0 -0.544962 
v 0.2254 2.7432 -0.574011 
v 0.2254 0 -0.574011 
v 0.205918 2.7432 -0.603599 
v 0.205918 0 -0.603599 
v 0.187245 2.7432 -0.633704 
v 0.187245 0 -0.633704 
v 0.169394 2.7432 -0.664303 
v 0.169394 0 -0.664303 
v 0.152378 2.7432 -0.695375 
v 0.152378 0 -0.695375 
v 0.136209 2.7432 -0.726896 
v 0.136209 0 -0.726896 
v 0.120901 2.7432 -0.758843 
v 0.120901 0 -0.758843 
v 0.106462 2.7432 -0.791193 
v 0.106462 0 -0.791193 
v 0.0929056 2.7432 -0.823922 
v 0.0929056 0 -0.823922 
v 0.0802399 2.7432 -0.857007 
v 0.0802399 0 -0.857007 
v 0.0684749 2.7432 -0.890422 
v 0.0684749 0 -0.890422 
v 0.057619 2.7432 -0.924143 
v 0.057619 0 -0.924143 
v 0.0476803 2.7432 -0.958146 
v 0.0476803 0 -0.958146 
v 0.0386659 2.7432 -0.992406 
v 0.0386659 0 -0.992406 
v 0.0305827 2.7432 -1.0269 
v 0.0305827 0 -1.0269 
v 0.0234363 2.7432 -1.06159 
v 0.0234363 0 -1.06159 
v 0.0172322 2.7432 -1.09647 
v 0.0172322 0 -1.09647 
v 0.0119749 2.7432 -1.13151 
v 0.0119749 0 -1.13151 
v 0.00766814 2.7432 -1.16667 
v 0.00766814 0 -1.16667 
v 0.00431517 2.7432 -1.20194 
v 0.00431517 0 -1.20194 
v 0.00191844 2.7432 -1.23728 
v 0.00191844 0 -1.23728 
v 0.000479698 2.7432 -1.27268 
v 0.000479698 0 -1.27268 
v 1.3081 0 -0.1778 
v 1.3081 2.7432 -0.1778 
v 0.178278 0 -1.27523 
v 0.179712 0 -1.24238 
v 0.178278 2.7432 -1.27523 
v 0.182101 0 -1.20959 
v 0.179712 2.7432 -1.24238 
v 0.185443 0 -1.17688 
v 0.182101 2.7432 -1.20959 
v 0.189734 0 -1.14428 
v 0.185443 2.7432 -1.17688 
v 0.194972 0 -1.11183 
v 0.189734 2.7432 -1.14428 
v 0.201151 0 -1.07953 
v 0.194972 2.7432 -1.11183 
v 0.208267 0 -1.04743 
v 0.201151 2.7432 -1.07953 
v 0.216314 0 -1.01556 
v 0.208267 2.7432 -1.04743 
v 0.225284 0 -0.983926 
v 0.216314 2.7432 -1.01556 
v 0.235171 0 -0.95257 
v 0.225284 2.7432 -0.983926 
v 0.245965 0 -0.921515 
v 0.235171 2.7432 -0.95257 
v 0.257658 0 -0.890786 
v 0.245965 2.7432 -0.921515 
v 0.27024 0 -0.860411 
v 0.257658 2.7432 -0.890786 
v 0.2837 0 -0.830415 
v 0.27024 2.7432 -0.860411 
v 0.298027 0 -0.800822 
v 0.2837 2.7432 -0.830415 
v 0.313208 0 -0.771659 
v 0.298027 2.7432 -0.800822 
v 0.329231 0 -0.74295 
v 0.313208 2.7432 -0.771659 
v 0.346083 0 -0.714719 
v 0.329231 2.7432 -0.74295 
v 0.363748 0 -0.68699 
v 0.346083 2.7432 -0.714719 
v 0.382212 0 -0.659787 
v 0.363748 2.7432 -0.68699 
v 0.40146 0 -0.633132 
v 0.382212 2.7432 -0.659787 
v 0.421475 0 -0.607048 
v 0.40146 2.7432 -0.633132 
v 0.44224 0 -0.581557 
v 0.421475 2.7432 -0.607048 
v 0.463738 0 -0.556681 
v 0.44224 2.7432 -0.581557 
v 0.48595 0 -0.532441 
v 0.463738 2.7432 -0.556681 
v 0.508857 0 -0.508857 
v 0.48595 2.7432 -0.532441 
v 0.532441 0 -0.48595 
v 0.508857 2.7432 -0.508857 
v 0.556681 0 -0.463738 
v 0.532441 2.7432 -0.48595 
v 0.581557 0 -0.44224 
v 0.556681 2.7432 -0.463738 
v 0.607048 0 -0.421475 
v 0.581557 2.7432 -0.44224 
v 0.633132 0 -0.40146 
v 0.607048 2.7432 -0.421475 
v 0.659787 0 -0.382212 
v 0.633132 2.7432 -0.40146 
v 0.68699 0 -0.363748 
v 0.659787 2.7432 -0.382212 
v 0.714719 0 -0.346083 
v 0.68699 2.7432 -0.363748 
v 0.74295 0 -0.329231 
v 0.714719 2.7432 -0.346083 
v 0.771659 0 -0.313208 
v 0.74295 2.7432 -0.329231 
v 0.800822 0 -0.298027 
v 0.771659 2.7432 -0.313208 
v 0.830415 0 -0.2837 
v 0.800822 2.7432 -0.298027 
v 0.860411 0 -0.27024 
v 0.830415 2.7432 -0.2837 
v 0.890786 0 -0.257658 
v 0.860411 2.7432 -0.27024 
v 0.921515 0 -0.245965 
v 0.890786 2.7432 -0.257658 
v 0.95257 0 -0.235171 
v 0.921515 2.7432 -0.245965 
v 0.983926 0 -0.225284 
v 0.95257 2.7432 -0.235171 
v 1.01556 0 -0.216314 
v 0.983926 2.7432 -0.225284 
v 1.04743 0 -0.208267 
v 1.01556 2.7432 -0.216314 
v 1.07953 0 -0.201151 
v 1.04743 2.7432 -0.208267 
v 1.11183 0 -0.194972 
v 1.07953 2.7432 -0.201151 
v 1.14428 0 -0.189734 
v 1.11183 2.7432 -0.194972 
v 1.17688 0 -0.185443 
v 1.14428 2.7432 -0.189734 
v 1.20959 0 -0.182101 
v 1.17688 2.7432 -0.185443 
v 1.24238 0 -0.179712 
v 1.20959 2.7432 -0.182101 
v 1.27523 0 -0.178278 
v 1.24238 2.7432 -0.179712 
v 1.27523 2.7432 -0.178278 
vn 0 0 -1 
vn 1.83697e-16 0 1 
vn -0.0270794 0 0.999633 
vn -0.0541389 0 0.998533 
vn -0.0811587 0 0.996701 
vn -0.108119 0 0.994138 
vn -0.135 0 0.990846 
vn -0.161782 0 0.986827 
vn -0.188445 0 0.982084 
vn -0.21497 0 0.976621 
vn -0.241338 0 0.970441 
vn -0.267528 0 0.96355 
vn -0.293523 0 0.955952 
vn -0.319302 0 0.947653 
vn -0.344846 0 0.938659 
vn -0.370138 0 0.928977 
vn -0.395159 0 0.918613 
vn -0.419889 0 0.907575 
vn -0.444312 0 0.895872 
vn -0.468408 0 0.883512 
vn -0.492162 0 0.870504 
vn -0.515554 0 0.856857 
vn -0.538568 0 0.842582 
vn -0.561187 0 0.827689 
vn -0.583395 0 0.812189 
vn -0.605174 0 0.796093 
vn -0.62651 0 0.779413 
vn -0.647386 0 0.762162 
vn -0.667788 0 0.744352 
vn -0.687699 0 0.725995 
vn -0.707107 0 0.707107 
vn -0.725995 0 0.687699 
vn -0.744352 0 0.667788 
vn -0.762162 0 0.647386 
vn -0.779413 0 0.62651 
vn -0.796093 0 0.605174 
vn -0.812189 0 0.583395 
vn -0.827689 0 0.561187 
vn -0.842582 0 0.538568 
vn -0.856857 0 0.515554 
vn -0.870504 0 0.492162 
vn -0.883512 0 0.468408 
vn -0.895872 0 0.444312 
vn -0.907575 0 0.419889 
vn -0.918613 0 0.395159 
vn -0.928977 0 0.370138 
vn -0.938659 0 0.344846 
vn -0.947653 0 0.319302 
vn -0.955952 0 0.293523 
vn -0.96355 0 0.267528 
vn -0.970441 0 0.241338 
vn -0.976621 0 0.21497 
vn -0.982084 0 0.188445 
vn -0.986827 0 0.161782 
vn -0.990846 0 0.135 
vn -0.994138 0 0.108119 
vn -0.996701 0 0.0811587 
vn -0.998533 0 0.0541389 
vn -0.999633 0 0.0270794 
vn -1 0 2.44929e-16 
vn 1 0 0 
vn 0.999577 0 -0.0290847 
vn 0.998308 0 -0.0581448 
vn 0.996195 0 -0.0871557 
vn 0.993238 0 -0.116093 
vn 0.989442 0 -0.144932 
vn 0.984808 0 -0.173648 
vn 0.979341 0 -0.202218 
vn 0.973045 0 -0.230616 
vn 0.965926 0 -0.258819 
vn 0.95799 0 -0.286803 
vn 0.949243 0 -0.314545 
vn 0.939693 0 -0.34202 
vn 0.929348 0 -0.369206 
vn 0.918216 0 -0.39608 
vn 0.906308 0 -0.422618 
vn 0.893633 0 -0.448799 
vn 0.880201 0 -0.4746 
vn 0.866025 0 -0.5 
vn 0.851117 0 -0.524977 
vn 0.835488 0 -0.549509 
vn 0.819152 0 -0.573576 
vn 0.802123 0 -0.597159 
vn 0.784416 0 -0.620235 
vn 0.766044 0 -0.642788 
vn 0.747025 0 -0.664796 
vn 0.727374 0 -0.686242 
vn 0.707107 0 -0.707107 
vn 0.686242 0 -0.727374 
vn 0.664796 0 -0.747025 
vn 0.642788 0 -0.766044 
vn 0.620235 0 -0.784416 
vn 0.597159 0 -0.802123 
vn 0.573576 0 -0.819152 
vn 0.549509 0 -0.835488 
vn 0.524977 0 -0.851117 
vn 0.5 0 -0.866025 
vn 0.4746 0 -0.880201 
vn 0.448799 0 -0.893633 
vn 0.422618 0 -0.906308 
vn 0.39608 0 -0.918216 
vn 0.369206 0 -0.929348 
vn 0.34202 0 -0.939693 
vn 0.314545 0 -0.949243 
vn 0.286803 0 -0.95799 
vn 0.258819 0 -0.965926 
vn 0.230616 0 -0.973045 
vn 0.202218 0 -0.979341 
vn 0.173648 0 -0.984808 
vn 0.144932 0 -0.989442 
vn 0.116093 0 -0.993238 
vn 0.0871557 0 -0.996195 
vn 0.0581448 0 -0.998308 
vn 0.0290847 0 -0.999577 
vn -1.83697e-16 0 -1 
vn 0 1 0 
vn 0 -1 0 
usemtl 0.615686_0.811765_0.929412_0.000000_0.000000
o mesh0
f 1//1 2//1 3//1 
f 3//1 4//1 1//1 
o mesh1
f 5//2 6//2 7//3 
f 8//3 7//3 9//4 
f 10//4 9//4 11//5 
f 12//5 11//5 13//6 
f 14//6 13//6 15//7 
f 16//7 15//7 17//8 
f 18//8 17//8 19//9 
f 20//9 19//9 21//10 
f 22//10 21//10 23//11 
f 24//11 23//11 25//12 
f 26//12 25//12 27//13 
f 28//13 27//13 29//14 
f 30//14 29//14 31//15 
f 32//15 31//15 33//16 
f 34//16 33//16 35//17 
f 36//17 35//17 37//18 
f 38//18 37//18 39//19 
f 40//19 39//19 41//20 
f 42//20 41//20 43//21 
f 44//21 43//21 45//22 
f 46//22 45//22 47//23 
f 48//23 47//23 49//24 
f 50//24 49//24 51//25 
f 52//25 51//25 53//26 
f 54//26 53//26 55//27 
f 56//27 55//27 57//28 
f 58//28 57//28 59//29 
f 60//29 59//29 61//30 
f 62//30 61//30 63//31 
f 64//31 63//31 65//32 
f 66//32 65//32 67//33 
f 68//33 67//33 69//34 
f 70//34 69//34 71//35 
f 72//35 71//35 73//36 
f 74//36 73//36 75//37 
f 76//37 75//37 77//38 
f 78//38 77//38 79//39 
f 80//39 79//39 81//40 
f 82//40 81//40 83//41 
f 84//41 83//41 85//42 
f 86//42 85//42 87//43 
f 88//43 87//43 89//44 
f 90//44 89//44 91//45 
f 92//45 91//45 93//46 
f 94//46 93//46 95//47 
f 96//47 95//47 97//48 
f 98//48 97//48 99//49 
f 100//49 99//49 101//50 
f 102//50 101//50 103//51 
f 104//51 103//51 105//52 
f 106//52 105//52 107//53 
f 108//53 107//53 109//54 
f 110//54 109//54 111//55 
f 112//55 111//55 113//56 
f 114//56 113//56 115//57 
f 116//57 115//57 117//58 
f 118//58 117//58 119//59 
f 120//59 119//59 4//60 
f 4//60 3//60 120//59 
f 119//59 120//59 118//58 
f 117//58 118//58 116//57 
f 115//57 116//57 114//56 
f 113//56 114//56 112//55 
f 111//55 112//55 110//54 
f 109//54 110//54 108//53 
f 107//53 108//53 106//52 
f 105//52 106//52 104//51 
f 103//51 104//51 102//50 
f 101//50 102//50 100//49 
f 99//49 100//49 98//48 
f 97//48 98//48 96//47 
f 95//47 96//47 94//46 
f 93//46 94//46 92//45 
f 91//45 92//45 90//44 
f 89//44 90//44 88//43 
f 87//43 88//43 86//42 
f 85//42 86//42 84//41 
f 83//41 84//41 82//40 
f 81//40 82//40 80//39 
f 79//39 80//39 78//38 
f 77//38 78//38 76//37 
f 75//37 76//37 74//36 
f 73//36 74//36 72//35 
f 71//35 72//35 70//34 
f 69//34 70//34 68//33 
f 67//33 68//33 66//32 
f 65//32 66//32 64//31 
f 63//31 64//31 62//30 
f 61//30 62//30 60//29 
f 59//29 60//29 58//28 
f 57//28 58//28 56//27 
f 55//27 56//27 54//26 
f 53//26 54//26 52//25 
f 51//25 52//25 50//24 
f 49//24 50//24 48//23 
f 47//23 48//23 46//22 
f 45//22 46//22 44//21 
f 43//21 44//21 42//20 
f 41//20 42//20 40//19 
f 39//19 40//19 38//18 
f 37//18 38//18 36//17 
f 35//17 36//17 34//16 
f 33//16 34//16 32//15 
f 31//15 32//15 30//14 
f 29//14 30//14 28//13 
f 27//13 28//13 26//12 
f 25//12 26//12 24//11 
f 23//11 24//11 22//10 
f 21//10 22//10 20//9 
f 19//9 20//9 18//8 
f 17//8 18//8 16//7 
f 15//7 16//7 14//6 
f 13//6 14//6 12//5 
f 11//5 12//5 10//4 
f 9//4 10//4 8//3 
f 7//3 8//3 5//2 
o mesh2
f 6//61 5//61 121//61 
f 121//61 122//61 6//61 
o mesh3
f 123//62 2//61 1//61 
f 124//63 123//62 125//62 
f 126//64 124//63 127//63 
f 128//65 126//64 129//64 
f 130//66 128//65 131//65 
f 132//67 130//66 133//66 
f 134//68 132//67 135//67 
f 136//69 134//68 137//68 
f 138//70 136//69 139//69 
f 140//71 138//70 141//70 
f 142//72 140//71 143//71 
f 144//73 142//72 145//72 
f 146//74 144//73 147//73 
f 148//75 146//74 149//74 
f 150//76 148//75 151//75 
f 152//77 150//76 153//76 
f 154//78 152//77 155//77 
f 156//79 154//78 157//78 
f 158//80 156//79 159//79 
f 160//81 158//80 161//80 
f 162//82 160//81 163//81 
f 164//83 162//82 165//82 
f 166//84 164//83 167//83 
f 168//85 166//84 169//84 
f 170//86 168//85 171//85 
f 172//87 170//86 173//86 
f 174//88 172//87 175//87 
f 176//89 174//88 177//88 
f 178//90 176//89 179//89 
f 180//91 178//90 181//90 
f 182//92 180//91 183//91 
f 184//93 182//92 185//92 
f 186//94 184//93 187//93 
f 188//95 186//94 189//94 
f 190//96 188//95 191//95 
f 192//97 190//96 193//96 
f 194//98 192//97 195//97 
f 196//99 194//98 197//98 
f 198//100 196//99 199//99 
f 200//101 198//100 201//100 
f 202//102 200//101 203//101 
f 204//103 202//102 205//102 
f 206//104 204//103 207//103 
f 208//105 206//104 209//104 
f 210//106 208//105 211//105 
f 212//107 210//106 213//106 
f 214//108 212//107 215//107 
f 216//109 214//108 217//108 
f 218//110 216//109 219//109 
f 220//111 218//110 221//110 
f 222//112 220//111 223//111 
f 224//113 222//112 225//112 
f 226//114 224//113 227//113 
f 121//115 226//114 228//114 
f 228//114 122//115 121//115 
f 227//113 228//114 226//114 
f 225//112 227//113 224//113 
f 223//111 225//112 222//112 
f 221//110 223//111 220//111 
f 219//109 221//110 218//110 
f 217//108 219//109 216//109 
f 215//107 217//108 214//108 
f 213//106 215//107 212//107 
f 211//105 213//106 210//106 
f 209//104 211//105 208//105 
f 207//103 209//104 206//104 
f 205//102 207//103 204//103 
f 203//101 205//102 202//102 
f 201//100 203//101 200//101 
f 199//99 201//100 198//100 
f 197//98 199//99 196//99 
f 195//97 197//98 194//98 
f 193//96 195//97 192//97 
f 191//95 193//96 190//96 
f 189//94 191//95 188//95 
f 187//93 189//94 186//94 
f 185//92 187//93 184//93 
f 183//91 185//92 182//92 
f 181//90 183//91 180//91 
f 179//89 181//90 178//90 
f 177//88 179//89 176//89 
f 175//87 177//88 174//88 
f 173//86 175//87 172//87 
f 171//85 173//86 170//86 
f 169//84 171//85 168//85 
f 167//83 169//84 166//84 
f 165//82 167//83 164//83 
f 163//81 165//82 162//82 
f 161//80 163//81 160//81 
f 159//79 161//80 158//80 
f 157//78 159//79 156//79 
f 155//77 157//78 154//78 
f 153//76 155//77 152//77 
f 151//75 153//76 150//76 
f 149//74 151//75 148//75 
f 147//73 149//74 146//74 
f 145//72 147//73 144//73 
f 143//71 145//72 142//72 
f 141//70 143//71 140//71 
f 139//69 141//70 138//70 
f 137//68 139//69 136//69 
f 135//67 137//68 134//68 
f 133//66 135//67 132//67 
f 131//65 133//66 130//66 
f 129//64 131//65 128//65 
f 127//63 129//64 126//64 
f 125//62 127//63 124//63 
f 1//61 125//62 123//62 
o mesh4
f 113//116 131//116 129//116 
f 111//116 133//116 131//116 
f 107//116 137//116 135//116 
f 95//116 93//116 149//116 
f 91//116 151//116 149//116 
f 87//116 155//116 153//116 
f 85//116 157//116 155//116 
f 81//116 161//116 159//116 
f 79//116 163//116 161//116 
f 77//116 75//116 165//116 
f 75//116 73//116 167//116 
f 73//116 71//116 169//116 
f 67//116 65//116 175//116 
f 65//116 63//116 177//116 
f 115//116 129//116 127//116 
f 131//116 113//116 111//116 
f 109//116 135//116 133//116 
f 135//116 109//116 107//116 
f 149//116 93//116 91//116 
f 89//116 153//116 151//116 
f 155//116 87//116 85//116 
f 83//116 159//116 157//116 
f 161//116 81//116 79//116 
f 163//116 79//116 77//116 
f 169//116 167//116 73//116 
f 71//116 69//116 171//116 
f 69//116 67//116 173//116 
f 177//116 175//116 65//116 
f 119//116 125//116 1//116 
f 117//116 127//116 125//116 
f 129//116 115//116 113//116 
f 107//116 105//116 137//116 
f 97//116 95//116 147//116 
f 151//116 91//116 89//116 
f 157//116 85//116 83//116 
f 165//116 163//116 77//116 
f 171//116 169//116 71//116 
f 175//116 173//116 67//116 
f 61//116 179//116 177//116 
f 59//116 181//116 179//116 
f 15//116 13//116 223//116 
f 13//116 11//116 225//116 
f 125//116 119//116 117//116 
f 133//116 111//116 109//116 
f 105//116 103//116 139//116 
f 103//116 101//116 141//116 
f 149//116 147//116 95//116 
f 159//116 83//116 81//116 
f 173//116 171//116 69//116 
f 179//116 61//116 59//116 
f 57//116 183//116 181//116 
f 55//116 185//116 183//116 
f 53//116 187//116 185//116 
f 51//116 189//116 187//116 
f 49//116 191//116 189//116 
f 19//116 17//116 219//116 
f 225//116 223//116 13//116 
f 11//116 9//116 227//116 
f 127//116 117//116 115//116 
f 141//116 139//116 103//116 
f 101//116 99//116 143//116 
f 99//116 97//116 145//116 
f 153//116 89//116 87//116 
f 177//116 63//116 61//116 
f 183//116 57//116 55//116 
f 187//116 53//116 51//116 
f 189//116 51//116 49//116 
f 47//116 45//116 193//116 
f 41//116 39//116 199//116 
f 39//116 37//116 201//116 
f 37//116 35//116 203//116 
f 33//116 205//116 203//116 
f 31//116 207//116 205//116 
f 29//116 209//116 207//116 
f 21//116 217//116 215//116 
f 217//116 21//116 19//116 
f 17//116 15//116 221//116 
f 227//116 225//116 11//116 
f 9//116 7//116 228//116 
f 7//116 6//116 122//116 
f 139//116 137//116 105//116 
f 145//116 143//116 99//116 
f 167//116 165//116 75//116 
f 185//116 55//116 53//116 
f 193//116 191//116 47//116 
f 45//116 43//116 195//116 
f 43//116 41//116 197//116 
f 201//116 199//116 39//116 
f 203//116 35//116 33//116 
f 207//116 31//116 29//116 
f 27//116 211//116 209//116 
f 25//116 213//116 211//116 
f 23//116 215//116 213//116 
f 219//116 217//116 19//116 
f 223//116 221//116 15//116 
f 122//116 228//116 7//116 
f 143//116 141//116 101//116 
f 181//116 59//116 57//116 
f 195//116 193//116 45//116 
f 199//116 197//116 41//116 
f 205//116 33//116 31//116 
f 211//116 27//116 25//116 
f 215//116 23//116 21//116 
f 228//116 227//116 9//116 
f 147//116 145//116 97//116 
f 197//116 195//116 43//116 
f 209//116 29//116 27//116 
f 221//116 219//116 17//116 
f 49//116 47//116 191//116 
f 213//116 25//116 23//116 
f 203//116 201//116 37//116 
f 1//116 4//116 119//116 
o mesh5
f 66//117 172//117 174//117 
f 68//117 170//117 172//117 
f 74//117 164//117 166//117 
f 76//117 162//117 164//117 
f 78//117 160//117 162//117 
f 80//117 82//117 158//117 
f 82//117 84//117 156//117 
f 108//117 110//117 132//117 
f 172//117 66//117 68//117 
f 70//117 168//117 170//117 
f 72//117 166//117 168//117 
f 164//117 74//117 76//117 
f 162//117 76//117 78//117 
f 156//117 158//117 82//117 
f 134//117 106//117 108//117 
f 110//117 112//117 130//117 
f 112//117 114//117 128//117 
f 114//117 116//117 126//117 
f 60//117 62//117 176//117 
f 62//117 64//117 174//117 
f 170//117 68//117 70//117 
f 166//117 72//117 74//117 
f 158//117 160//117 80//117 
f 84//117 86//117 154//117 
f 86//117 88//117 152//117 
f 88//117 90//117 150//117 
f 90//117 92//117 148//117 
f 92//117 94//117 146//117 
f 130//117 132//117 110//117 
f 126//117 128//117 114//117 
f 14//117 220//117 222//117 
f 16//117 218//117 220//117 
f 174//117 176//117 62//117 
f 168//117 70//117 72//117 
f 154//117 156//117 84//117 
f 150//117 152//117 88//117 
f 146//117 148//117 92//117 
f 96//117 144//117 146//117 
f 128//117 130//117 112//117 
f 116//117 118//117 124//117 
f 118//117 120//117 123//117 
f 120//117 3//117 2//117 
f 8//117 226//117 121//117 
f 10//117 224//117 226//117 
f 12//117 222//117 224//117 
f 220//117 14//117 16//117 
f 20//117 214//117 216//117 
f 52//117 54//117 184//117 
f 54//117 56//117 182//117 
f 56//117 58//117 180//117 
f 58//117 60//117 178//117 
f 174//117 64//117 66//117 
f 152//117 154//117 86//117 
f 146//117 94//117 96//117 
f 98//117 142//117 144//117 
f 104//117 136//117 138//117 
f 106//117 134//117 136//117 
f 124//117 126//117 116//117 
f 2//117 123//117 120//117 
f 226//117 8//117 10//117 
f 222//117 12//117 14//117 
f 216//117 18//117 20//117 
f 22//117 24//117 212//117 
f 30//117 32//117 204//117 
f 32//117 34//117 202//117 
f 34//117 36//117 200//117 
f 38//117 198//117 200//117 
f 40//117 196//117 198//117 
f 42//117 194//117 196//117 
f 46//117 190//117 192//117 
f 48//117 188//117 190//117 
f 50//117 52//117 186//117 
f 182//117 184//117 54//117 
f 178//117 180//117 58//117 
f 78//117 80//117 160//117 
f 144//117 96//117 98//117 
f 100//117 140//117 142//117 
f 102//117 138//117 140//117 
f 136//117 104//117 106//117 
f 123//117 124//117 118//117 
f 224//117 10//117 12//117 
f 18//117 216//117 218//117 
f 212//117 214//117 22//117 
f 24//117 26//117 210//117 
f 26//117 28//117 208//117 
f 28//117 30//117 206//117 
f 202//117 204//117 32//117 
f 200//117 36//117 38//117 
f 196//117 40//117 42//117 
f 44//117 192//117 194//117 
f 190//117 46//117 48//117 
f 188//117 48//117 50//117 
f 180//117 182//117 56//117 
f 148//117 150//117 90//117 
f 140//117 100//117 102//117 
f 132//117 134//117 108//117 
f 218//117 16//117 18//117 
f 210//117 212//117 24//117 
f 206//117 208//117 28//117 
f 200//117 202//117 34//117 
f 194//117 42//117 44//117 
f 186//117 188//117 50//117 
f 176//117 178//117 60//117 
f 138//117 102//117 104//117 
f 20//117 22//117 214//117 
f 204//117 206//117 30//117 
f 192//117 44//117 46//117 
f 142//117 98//117 100//117 
f 208//117 210//117 26//117 
f 184//117 186//117 52//117 
f 198//117 38//117 40//117 
f 121//117 5//117 8//117 
